<svg width="179" height="110" viewBox="0 0 115 72" fill="none" xmlns="http://www.w3.org/2000/svg">
<path fill-rule="evenodd" clip-rule="evenodd" d="M71.0022 7.84371C71.0792 8.03448 71.1793 8.21613 71.3004 8.3842C71.4998 8.66133 71.7522 8.89674 72.0431 9.07703C72.1861 9.16552 72.3366 9.23985 72.493 9.29904C71.4032 10.9083 70.0709 12.0806 68.3577 12.9642L68.3583 12.9639C68.0652 13.1147 67.8136 13.3338 67.6251 13.6027C67.4364 13.8715 67.3164 14.1818 67.2755 14.5067C67.2345 14.832 67.274 15.1619 67.3901 15.4685C67.5062 15.7752 67.6957 16.0492 67.9425 16.2669L67.9438 16.2681C68.1294 16.4303 68.2991 16.6069 68.4524 16.7971C68.6006 17.0135 68.7889 17.1977 69.0049 17.3409C69.0908 17.4599 69.1905 17.5701 69.3019 17.6689L69.305 17.6718C69.4941 17.8356 69.6654 18.0122 69.8204 18.2024C70.0965 18.6045 70.5103 18.8944 70.9854 19.0181C71.474 19.1452 71.9929 19.0872 72.4408 18.8554C73.2071 18.4601 73.9301 18.0072 74.6115 17.4942C74.8598 17.7797 75.1682 18.0093 75.5162 18.1663C75.5682 18.2954 75.631 18.4209 75.7041 18.5414C76.0105 19.0466 76.4797 19.4345 77.0356 19.6426L77.0366 19.643C77.9667 19.9882 78.922 20.2592 79.8945 20.4534L79.9037 20.4554C80.2215 20.5109 80.5339 20.5396 80.8469 20.5425H80.8493C81.5117 20.5448 82.1636 20.3962 82.7566 20.1082C83.3402 19.825 83.8513 19.4142 84.2518 18.9067L84.2713 18.882L83.8998 19.0633L83.6679 19.1665L84.2825 18.8706C84.5879 18.4853 84.898 17.9561 85.2075 17.2755L85.6695 17.6992C85.6918 17.7195 85.7145 17.7395 85.7377 17.7588C85.8459 17.9666 85.9898 18.1545 86.1636 18.314L87.0405 19.1163C87.219 19.2799 87.4243 19.4091 87.6452 19.4998C87.7663 19.761 87.9309 20.0022 88.1341 20.2128C88.372 20.4592 88.6549 20.6551 88.9654 20.7917C89.0888 21.0948 89.27 21.3743 89.5009 21.6138C89.8926 22.0199 90.4066 22.2893 90.9654 22.3811C91.7348 22.5272 92.5255 22.613 93.3195 22.6361L93.3308 22.6365C94.4322 22.6365 95.4331 22.3768 96.1618 21.6512C96.6451 21.1701 97.0221 20.4753 97.1914 19.4646L97.3453 18.5443C97.3924 18.6709 97.4388 18.7982 97.4843 18.9257C97.5721 19.1795 97.7098 19.4136 97.8893 19.6144C98.0705 19.8169 98.2905 19.9812 98.5364 20.0979C98.6252 20.14 98.7167 20.1755 98.8106 20.204C98.8106 20.204 99.0782 20.8093 99.2581 21.01C99.439 21.2115 99.6585 21.3749 99.9039 21.4907C100.074 21.5718 100.254 21.6283 100.44 21.6592C100.795 21.7188 101.159 21.684 101.496 21.5581C101.494 21.5585 102.683 21.116 102.683 21.116C102.933 21.0236 103.163 20.8825 103.359 20.7012C103.555 20.5196 103.713 20.3017 103.824 20.0593C103.935 19.8173 103.997 19.5558 104.006 19.2902C104.014 19.0243 103.97 18.7592 103.876 18.5102L103.875 18.5071C103.275 16.9677 102.568 15.4742 101.761 14.0349C102.304 14.0408 102.839 13.8779 103.289 13.5643C103.852 13.1725 104.236 12.5767 104.359 11.906L104.36 11.9017C104.376 11.8053 104.388 11.7084 104.393 11.6118C104.502 11.5751 104.607 11.5289 104.709 11.4742L104.711 11.473C105.384 11.1037 105.881 10.4879 106.097 9.75821H106.097C106.313 9.02831 106.231 8.24349 105.868 7.57376L105.867 7.57143C105.563 7.0195 105.23 6.48716 104.867 5.97423C104.607 5.60278 104.261 5.29984 103.864 5.08772C103.748 4.90918 103.628 4.73238 103.505 4.5581C103.091 3.96813 102.468 3.55282 101.759 3.39582H101.759C101.058 3.24037 100.323 3.34924 99.6988 3.7009L99.6673 3.71739L99.6382 3.73331C99.5846 3.76397 99.5326 3.79696 99.4822 3.83228C99.2012 3.73719 98.9062 3.68498 98.607 3.67838C98.2991 3.67159 97.9933 3.71332 97.701 3.80104C97.6339 3.73816 97.5623 3.67974 97.4871 3.62637L97.4869 3.62618C97.2644 3.4684 97.0131 3.35603 96.7466 3.29548L95.1535 2.95043L95.1384 2.94732C95.1295 2.94558 95.0835 2.93645 95.0735 2.93432L95.0458 2.92966L95.046 2.92927L95.0338 2.92753L95.029 2.92675L95.0258 2.92636C94.7683 2.88658 94.5057 2.89628 94.2521 2.95489C93.9917 3.01505 93.7461 3.12567 93.5287 3.27996L93.5285 3.28015C93.3111 3.43483 93.1267 3.63025 92.9855 3.85538L92.9854 3.85576C92.8442 4.08127 92.7492 4.33182 92.7056 4.59362C92.7058 4.59265 92.4527 6.10329 92.4527 6.10329L89.2493 5.57464C88.5656 5.46169 87.8648 5.62297 87.3009 6.02275C87.0323 6.21313 86.8053 6.45029 86.6289 6.71985L86.3427 6.56324C86.2742 6.33093 86.164 6.11241 86.0169 5.91834C85.8437 5.68934 85.6235 5.49973 85.3707 5.36155C85.3721 5.36233 84.5587 4.91577 84.5587 4.91577C84.1577 4.70133 83.7012 4.62583 83.2571 4.69783L82.4416 4.56315C82.4682 4.49193 82.4911 4.41934 82.5104 4.3454C82.5785 4.08729 82.5943 3.81831 82.557 3.55418C82.5196 3.28966 82.4299 3.03524 82.2928 2.80546C82.156 2.57568 81.9743 2.3752 81.7589 2.21548C81.5723 2.07731 81.3633 1.97193 81.1414 1.904C81.0941 1.7307 81.0235 1.56302 80.9302 1.40563L80.9287 1.40311C80.7881 1.17003 80.6043 0.96936 80.3861 0.810222C80.1698 0.652443 79.9241 0.538524 79.663 0.475451L78.0216 0.0626644C77.7606 -0.00370756 77.4865 -0.0176806 77.2176 0.0222978C76.949 0.0620822 76.6909 0.155042 76.459 0.295354C76.2269 0.435861 76.0255 0.62081 75.8668 0.839721C75.708 1.05863 75.595 1.30685 75.5344 1.56981L75.5342 1.5702C75.4048 2.13494 75.263 2.72628 75.0921 3.34575L72.4911 2.91588C71.8075 2.80313 71.107 2.96459 70.5433 3.36457C69.9796 3.76455 69.5991 4.37024 69.4855 5.04871C69.3719 5.72718 69.5346 6.42254 69.9376 6.98204C70.2109 7.36164 70.5799 7.6576 71.0022 7.84371ZM90.8725 16.539L91.7289 16.9536L91.4515 16.129L90.8725 16.539ZM79.9751 10.5888L80.0345 10.5985C79.6005 12.1889 79.2243 13.2319 78.9463 13.7877C78.7222 13.7299 78.4993 13.667 78.2778 13.5994C78.8972 12.6883 79.4622 11.6859 79.9751 10.5888ZM87.3191 10.2558C87.1672 10.9271 87.0164 11.5598 86.8663 12.1544C87.2483 11.7346 87.5948 11.2828 87.9014 10.8035C87.8472 10.7062 87.7995 10.6053 87.7585 10.5019C87.6474 10.4536 87.5401 10.3973 87.4368 10.3332C87.3967 10.3086 87.3574 10.2828 87.3191 10.2558Z" fill="white"/>
<path d="M102.086 33.347H18.3753C16.721 33.347 15.3799 34.6782 15.3799 36.3202V47.4482C15.3799 49.0902 16.721 50.4213 18.3753 50.4213H102.086C103.741 50.4213 105.082 49.0902 105.082 47.4482V36.3202C105.082 34.6782 103.741 33.347 102.086 33.347Z" fill="white"/>
<path d="M20.3911 71.6662V69.448H18.9032V71.6662H17.8708V66.4729H18.9032V68.5067H20.3911V66.4729H21.4235V71.6662H20.3911Z" fill="white"/>
<path d="M23.1382 71.6662V66.4729H26.0045V67.3889H24.1647V68.5533H25.8872V69.4693H24.1647V70.758H26.1199L26.0104 71.674L23.1382 71.6662Z" fill="white"/>
<path d="M29.9305 71.6662L29.1602 69.6944C29.0847 69.6992 29.0089 69.6992 28.9334 69.6944H28.5228V71.6584H27.5452V66.4729H29.039C29.509 66.4428 29.9735 66.5882 30.3411 66.8804C30.4982 67.0298 30.6205 67.2113 30.6995 67.4125C30.7786 67.6136 30.8124 67.8294 30.7987 68.0448C30.8016 68.3221 30.7343 68.5957 30.6031 68.8405C30.4755 69.0766 30.2856 69.2738 30.0537 69.4111L31.0059 71.6662H29.9305ZM28.9529 68.8658C29.1826 68.8843 29.4107 68.8149 29.5903 68.6717C29.6644 68.5912 29.7209 68.4964 29.7562 68.3932C29.7915 68.29 29.8049 68.1806 29.7956 68.072C29.8053 67.9661 29.7919 67.8593 29.7565 67.7588C29.7211 67.6584 29.6644 67.5667 29.5903 67.4898C29.4129 67.3482 29.1878 67.2788 28.9607 67.2957H28.5208V68.8483L28.9529 68.8658Z" fill="white"/>
<path d="M34.1364 71.8059C33.8521 71.822 33.5683 71.7672 33.3108 71.6465C33.0533 71.5258 32.8303 71.3431 32.6622 71.115C32.3259 70.6545 32.1577 69.9804 32.1577 69.0928C32.1577 68.2053 32.3298 67.5254 32.6739 67.0532C32.8465 66.8215 33.0745 66.6361 33.3374 66.5138C33.6002 66.3915 33.8896 66.3361 34.1794 66.3526C34.4635 66.3363 34.7471 66.3911 35.0043 66.5118C35.2615 66.6325 35.4841 66.8153 35.6517 67.0435C35.9893 67.5028 36.1581 68.1768 36.1581 69.0657C36.1581 69.9545 35.986 70.6344 35.6419 71.1053C35.4686 71.3362 35.2405 71.521 34.9778 71.6433C34.7151 71.7655 34.4261 71.8214 34.1364 71.8059ZM34.1501 70.8899C34.2986 70.8972 34.4458 70.8598 34.5725 70.7826C34.6991 70.7053 34.7993 70.5919 34.8598 70.4571C35.0071 70.1673 35.0808 69.7054 35.0808 69.0715C35.0808 68.4375 35.0084 67.9782 34.8637 67.6936C34.8038 67.5614 34.7052 67.4501 34.5807 67.3743C34.4562 67.2985 34.3116 67.2617 34.1657 67.2686C34.017 67.2614 33.8696 67.2989 33.7427 67.376C33.6157 67.4532 33.5151 67.5666 33.454 67.7014C33.3106 67.9795 33.239 68.4382 33.239 69.0773C33.239 69.7119 33.3093 70.1719 33.454 70.4552C33.5142 70.5868 33.6127 70.6975 33.7367 70.7732C33.8607 70.8489 34.0046 70.8862 34.1501 70.8802V70.8899Z" fill="white"/>
<path d="M41.4176 71.8059C41.1337 71.8218 40.8502 71.7669 40.593 71.6462C40.3359 71.5256 40.1132 71.343 39.9454 71.115C39.6091 70.6545 39.4409 69.9804 39.4409 69.0928C39.4409 68.2053 39.613 67.5254 39.9571 67.0532C40.1297 66.8215 40.3577 66.6361 40.6206 66.5138C40.8834 66.3915 41.1728 66.3361 41.4626 66.3526C41.7467 66.3363 42.0303 66.3911 42.2875 66.5118C42.5447 66.6325 42.7673 66.8153 42.9349 67.0435C43.2712 67.5028 43.44 68.1768 43.4413 69.0657C43.4426 69.9545 43.2699 70.6344 42.9232 71.1053C42.7507 71.3372 42.5227 71.5226 42.2598 71.6449C41.997 71.7673 41.7075 71.8226 41.4176 71.8059ZM41.4333 70.8899C41.5817 70.897 41.7288 70.8594 41.8554 70.7822C41.9821 70.705 42.0823 70.5917 42.143 70.4571C42.2903 70.1673 42.364 69.7054 42.364 69.0715C42.364 68.4375 42.2916 67.9782 42.1469 67.6936C42.0865 67.5614 41.9875 67.4502 41.8627 67.3744C41.7379 67.2987 41.5931 67.2618 41.447 67.2686C41.2986 67.2615 41.1514 67.2991 41.0248 67.3763C40.8982 67.4535 40.798 67.5668 40.7372 67.7014C40.5912 67.9912 40.5176 68.453 40.5163 69.087C40.515 69.721 40.5873 70.1803 40.7333 70.4649C40.7953 70.5953 40.8949 70.7044 41.0196 70.7784C41.1442 70.8524 41.2883 70.8878 41.4333 70.8802V70.8899Z" fill="white"/>
<path d="M44.9565 71.6662V66.4729H47.733V67.3889H45.9909V68.6406H47.6156V69.5567H45.9909V71.6662H44.9565Z" fill="white"/>
<path d="M53.6182 71.6662L52.0345 68.27V71.6662H51.0959V66.4729H52.0638L53.6456 69.8691V66.4729H54.5841V71.6662H53.6182Z" fill="white"/>
<path d="M58.7095 66.4729H59.7418V69.8031C59.7418 70.45 59.5906 70.9436 59.2882 71.2839C58.9318 71.613 58.4631 71.796 57.9763 71.796C57.4894 71.796 57.0207 71.613 56.6643 71.2839C56.3619 70.9423 56.2107 70.4487 56.2107 69.8031V66.4729H57.2431V69.8769C57.2241 70.1415 57.2868 70.4055 57.4229 70.6337C57.4925 70.7112 57.5777 70.7732 57.6731 70.8156C57.7684 70.8581 57.8717 70.88 57.9763 70.88C58.0808 70.88 58.1841 70.8581 58.2795 70.8156C58.3748 70.7732 58.4601 70.7112 58.5296 70.6337C58.6657 70.4055 58.7285 70.1415 58.7095 69.8769V66.4729Z" fill="white"/>
<path d="M62.1448 71.6662V67.3967H60.958V66.4807H64.366V67.3967H63.1791V71.6662H62.1448Z" fill="white"/>
<path d="M68.0575 71.6662L67.2891 69.6944C67.2136 69.6991 67.1378 69.6991 67.0623 69.6944H66.6517V71.6584H65.6741V66.4729H67.1679C67.6373 66.4427 68.1012 66.5881 68.4681 66.8804C68.6254 67.0297 68.748 67.2112 68.8274 67.4123C68.9067 67.6134 68.9409 67.8293 68.9276 68.0449C68.9305 68.3221 68.8632 68.5957 68.732 68.8405C68.6044 69.0766 68.4145 69.2738 68.1826 69.4111L69.1348 71.6662H68.0575ZM67.0799 68.8658C67.3095 68.8841 67.5375 68.8147 67.7173 68.6717C67.7913 68.5912 67.8478 68.4964 67.8831 68.3932C67.9185 68.29 67.9319 68.1806 67.9226 68.072C67.9322 67.9661 67.9189 67.8593 67.8835 67.7588C67.8481 67.6584 67.7914 67.5667 67.7173 67.4898C67.5398 67.3482 67.3148 67.2788 67.0877 67.2957H66.6478V68.8483L67.0799 68.8658Z" fill="white"/>
<path d="M70.4839 71.6662V66.4729H71.5162V71.6662H70.4839Z" fill="white"/>
<path d="M74.0071 71.6662V67.3967H72.8203V66.4807H76.2283V67.3967H75.0414V71.6662H74.0071Z" fill="white"/>
<path d="M77.5325 71.6662V66.4729H78.5648V71.6662H77.5325Z" fill="white"/>
<path d="M82.0588 71.8059C81.7748 71.8218 81.4913 71.7669 81.2341 71.6462C80.977 71.5256 80.7543 71.343 80.5865 71.115C80.2502 70.6544 80.082 69.9804 80.082 69.0928C80.082 68.2053 80.2541 67.5254 80.5982 67.0532C80.7708 66.8215 80.9988 66.6361 81.2617 66.5138C81.5245 66.3915 81.8139 66.3361 82.1037 66.3526C82.3878 66.3363 82.6714 66.3911 82.9286 66.5118C83.1858 66.6325 83.4084 66.8153 83.576 67.0435C83.9084 67.5015 84.0746 68.1723 84.0746 69.056C84.0746 69.9396 83.9025 70.6195 83.5584 71.0956C83.3867 71.3275 83.16 71.5136 82.8984 71.6375C82.6368 71.7615 82.3483 71.8193 82.0588 71.8059ZM82.0744 70.8899C82.224 70.8964 82.372 70.8576 82.4988 70.7785C82.6256 70.6995 82.7251 70.584 82.7842 70.4474C82.9314 70.1576 83.0051 69.6957 83.0051 69.0618C83.0051 68.4278 82.9328 67.9685 82.7881 67.6839C82.7278 67.5515 82.6288 67.4402 82.504 67.3644C82.3792 67.2886 82.2343 67.2518 82.0881 67.2589C81.9397 67.2518 81.7926 67.2894 81.6659 67.3666C81.5393 67.4438 81.4391 67.557 81.3783 67.6916C81.2324 67.9815 81.1587 68.4433 81.1574 69.0773C81.1561 69.7113 81.2284 70.1706 81.3744 70.4552C81.4349 70.5874 81.5339 70.6986 81.6587 70.7743C81.7835 70.8501 81.9283 70.887 82.0744 70.8802V70.8899Z" fill="white"/>
<path d="M88.1179 71.6662L86.5362 68.27V71.6662H85.5977V66.4729H86.5655L88.1473 69.8691V66.4729H89.0858V71.6662H88.1179Z" fill="white"/>
<path d="M6.16091 56.0203C3.96324 56.2571 2.70212 54.7025 2.36777 51.3257C2.1514 49.376 2.01388 46.7942 1.95522 43.5804C1.84573 36.7232 1.89526 31.4083 2.10382 27.6356C2.13736 27.3522 2.15303 27.067 2.15075 26.7817C2.12728 25.2045 2.29674 23.9282 2.6591 22.9527C3.12836 21.7359 4.04145 21.0566 5.41597 20.9052C6.44442 20.7927 7.26691 20.9311 7.88346 21.3206C8.59907 21.8963 8.95101 22.976 8.93928 24.5596C8.93928 26.5223 8.94254 28.4843 8.94906 30.4457C8.92951 33.2429 9.01749 34.7166 9.21301 34.8666C9.60406 34.7716 10.8867 33.2597 13.1235 30.3487C17.2568 24.5266 19.8592 21.34 20.6276 20.6918C21.2654 20.2161 22.0191 19.9173 22.8116 19.8262C23.4759 19.7692 24.1427 19.904 24.7316 20.2144C25.588 20.7034 25.9869 21.3788 25.9341 22.2676C25.908 22.6104 25.8199 22.9456 25.674 23.2574C24.3171 25.7648 21.9865 29.0911 18.8151 33.2753C16.5549 36.1572 15.2605 37.8068 14.8597 38.2066C14.1304 38.946 13.7648 39.4855 13.757 39.8251C13.7491 40.1648 16.7719 42.0511 22.4851 45.8006C24.2096 46.998 25.0933 48.2128 25.1735 49.4238C25.0425 51.4693 23.9202 52.5406 21.8047 52.6687C20.2405 52.7677 17.5032 51.1705 13.3972 47.9955C11.3364 46.4235 9.8993 45.5618 9.14262 45.3833C9.03824 45.7891 8.98763 46.2066 8.99207 46.6254C9.04812 47.4404 9.11981 48.2737 9.20715 49.125C9.29067 49.9017 9.33113 50.6824 9.32837 51.4635C9.31664 52.734 9.04682 53.749 8.51891 54.5085C7.86195 55.418 7.07595 55.922 6.16091 56.0203Z" fill="white"/>
<path d="M44.9977 53.0258C43.5997 53.0141 42.6729 52.4028 42.2076 51.1821C42.0251 50.4136 42.031 49.2058 42.2252 47.5588C42.3412 46.5924 42.4422 45.875 42.5282 45.4066C42.6162 44.9369 42.7081 44.4188 42.8098 43.854C42.8701 43.3658 42.9047 42.8748 42.9134 42.383C42.9134 41.9424 42.8411 41.6669 42.6808 41.5524C42.4492 41.4221 42.1835 41.364 41.9182 41.3855C41.7227 41.3855 41.402 41.4029 40.9406 41.434C40.2683 41.4943 39.5999 41.5915 38.9385 41.7251C38.1299 41.8763 37.3377 42.1037 36.5726 42.4043C35.8648 42.6877 35.4269 43.0021 35.2529 43.3475C35.0905 43.6538 34.987 43.9875 34.9478 44.3314C34.8892 44.9583 35.1023 45.884 35.5735 47.1028C36.0447 48.3215 36.2403 49.2938 36.1718 50.0061C36.1336 50.2873 36.0754 50.5655 35.9978 50.8386C35.8981 51.2268 35.5442 51.6925 34.942 52.2437C34.2902 52.712 33.673 52.954 33.0904 52.9695C32.3449 52.9962 31.6163 52.7457 31.0472 52.267C28.7009 50.3651 27.7468 45.818 28.2453 38.5773C28.3996 37.0436 28.6847 35.5257 29.0978 34.0399C29.5613 32.3466 30.1852 30.7007 30.9611 29.1241C31.7552 27.4875 32.7487 25.9539 33.9194 24.5576C35.0791 23.169 36.4828 22.0005 38.0625 21.109C39.6908 20.196 41.5079 19.6649 43.3749 19.5565C46.5482 19.704 48.8065 21.2022 50.0989 24.0065C51.0315 26.5294 51.2622 30.3739 50.8145 35.5498C50.5916 38.0248 50.2338 40.9805 49.7411 44.4168C49.5482 45.7805 49.3481 47.0743 49.1408 48.2982C49.0606 48.8669 48.9785 49.4355 48.8984 50.0041C48.7775 50.7759 48.3846 51.4801 47.7898 51.9914C47.0264 52.6777 46.0274 53.0478 44.9977 53.0258ZM37.0087 36.2504C37.5952 36.2387 38.5533 36.0854 39.9063 35.7982C41.2593 35.511 42.188 35.216 42.6944 34.8802C43.2008 34.5445 43.5098 33.9196 43.6212 32.9803C43.7185 31.9248 43.7185 30.8627 43.6212 29.8072C43.5274 28.5134 43.2315 27.4286 42.7335 26.5527C42.672 26.4604 42.5879 26.3851 42.4891 26.3338C42.3903 26.2826 42.28 26.257 42.1685 26.2596C41.5702 26.2596 40.7998 26.8418 39.8476 27.9675C38.8954 29.0931 37.9726 30.6592 37.0654 32.6251C36.4136 33.9189 36.0656 34.8479 36.0213 35.412C35.9769 35.9761 36.3061 36.2555 37.0087 36.2504Z" fill="white"/>
<path d="M58.3108 53.6681C56.0232 53.5556 55.2117 51.4732 55.8804 47.3822C56.4474 41.1196 57.2315 34.7677 58.2795 28.3168L58.5845 26.4421C58.8556 24.7679 59.0596 23.7186 59.1965 23.2942C59.5621 22.0813 60.8389 21.3807 63.0326 21.2255C63.8618 21.1741 64.6842 21.0441 65.4884 20.8373C67.297 20.391 68.7262 20.2066 69.7664 20.2726C70.4179 20.3174 71.0625 20.4333 71.6884 20.618C73.3178 21.1355 74.6401 21.9118 75.6556 22.9469C76.6341 23.9247 77.3349 25.1419 77.687 26.475C78.0295 27.7879 78.0469 29.1635 77.7379 30.4845C77.7242 30.5428 77.6264 30.9445 77.4407 31.6917C77.2549 32.4388 76.641 33.4383 75.6106 34.7075C75.1785 35.1869 74.8285 35.5595 74.5352 35.8234C74.1539 36.2232 73.9487 36.5065 73.9095 36.6773C73.8411 36.9898 74.2048 37.4808 74.9908 38.1581C77.7985 40.6363 78.7761 43.429 78.0488 46.4779C77.6851 48.0032 76.8209 49.5034 75.4835 50.988C73.888 52.5057 71.794 53.4139 69.1857 53.7438C67.7642 53.9338 66.3273 53.9832 64.896 53.8913C63.9627 53.8253 63.0978 53.7251 62.3014 53.5905C61.953 53.5 61.5999 53.4288 61.2436 53.377C61.0636 53.3523 60.8818 53.3419 60.7001 53.346C60.5749 53.3536 60.4502 53.3679 60.3266 53.3887C59.6834 53.6271 58.9952 53.7225 58.3108 53.6681ZM65.0543 35.0374C65.7178 34.8755 66.3394 34.5766 66.8786 34.1602C68.8338 32.7649 69.9874 31.3268 70.2904 29.8247C70.3646 29.3665 70.358 28.8989 70.2709 28.4429C70.1762 27.8795 69.8789 27.3692 69.434 27.0068C69.039 26.634 68.5297 26.4031 67.9872 26.3508C67.7344 26.3487 67.4817 26.3617 67.2305 26.3897C66.4171 26.4556 65.7999 27.1795 65.3789 28.5613C65.1834 29.2386 64.9879 30.1585 64.7689 31.321C64.3192 33.7637 64.4143 35.0031 65.0543 35.0394V35.0374ZM65.7074 47.4792C66.2366 47.5384 66.7712 47.5326 67.2989 47.4618C69.5083 47.4812 70.7382 46.9262 70.9884 45.7656C71.2074 44.7448 70.8672 43.8366 69.9541 43.0486C69.155 42.3653 68.1457 41.9718 67.0917 41.9327C66.1796 41.8893 65.2659 41.9742 64.3778 42.185C63.7665 42.4063 63.3598 43.0532 63.1578 44.1257C62.8945 45.5774 63.1069 46.5238 63.7952 46.965C64.2097 47.2522 64.8451 47.421 65.7074 47.4812V47.4792Z" fill="white"/>
<path d="M89.1875 56.5714C86.3798 56.1561 84.3542 54.6501 83.05 52.0127C82.0737 50.1458 81.6442 47.8279 81.7616 45.0592C81.8085 43.0952 82.1884 40.6577 82.9014 37.7466C83.5881 35.0148 84.7859 32.4355 86.4326 30.143C87.7605 28.2997 89.4349 26.7287 91.3637 25.5163C92.7072 24.6812 94.228 24.1676 95.8059 24.0162C96.5368 23.9536 97.263 23.8453 97.9801 23.6921C98.7066 23.5312 99.4564 23.5016 100.193 23.6047C100.828 23.7289 101.446 23.9283 102.033 24.1986C103.494 24.841 104.698 26.5041 105.598 29.1804C106.497 31.8566 106.028 35.9728 104.241 41.5368C102.958 45.5308 101.345 48.828 99.4426 51.4344C96.5215 55.4749 93.1449 57.1575 89.1875 56.5714ZM91.131 50.0972C91.1603 50.0972 91.3011 50.107 91.5514 50.1147C91.8016 50.1225 92.222 49.8644 92.8183 49.3384C94.2339 47.9431 95.5557 45.3192 96.7679 41.4611C97.2658 39.7792 97.6706 38.1619 97.9821 36.6094C98.2502 35.3524 98.4337 34.079 98.5315 32.7978C98.5941 30.9891 98.1033 30.0052 97.069 29.8499L96.5841 29.7781C96.2947 29.7354 95.7003 30.044 94.8107 30.7058C92.5016 32.5979 90.8338 35.542 89.7584 39.5088C89.4685 40.6017 89.2633 41.715 89.1445 42.839C88.8421 45.1316 88.887 46.8822 89.2794 48.0906C89.6704 49.3054 90.2844 49.9711 91.131 50.0972Z" fill="white"/>
<path d="M114.291 34.2922C113.618 32.2933 112.795 30.7582 111.778 29.6035L111.704 29.52L111.673 29.4831L111.598 29.3997L111.567 29.3648C111.544 29.3356 111.518 29.3065 111.493 29.2794L111.463 29.2464C111.44 29.2173 111.415 29.192 111.391 29.1649L111.358 29.128C111.334 29.0989 111.311 29.0717 111.286 29.0445L111.252 29.0077C111.229 28.9786 111.203 28.9514 111.178 28.9242L111.149 28.8893C111.125 28.8621 111.1 28.8349 111.076 28.8058L111.043 28.7709C111.02 28.7418 110.994 28.7146 110.971 28.6875L110.938 28.6525L110.867 28.5691L110.834 28.5322L110.76 28.4487L110.728 28.4138C110.705 28.3847 110.679 28.3575 110.656 28.3304L110.625 28.2954L110.548 28.2081L110.519 28.1771C110.496 28.1479 110.47 28.1208 110.445 28.0917L110.414 28.0567L110.341 27.9733L110.31 27.9383L110.236 27.8549L110.204 27.82C110.181 27.7909 110.155 27.7637 110.13 27.7346L110.099 27.7016C110.075 27.6725 110.05 27.6453 110.026 27.6181L109.995 27.5813L109.919 27.4959L109.89 27.4629L109.815 27.3775L109.784 27.3445C109.76 27.3154 109.735 27.2863 109.71 27.2591L109.68 27.2261C109.657 27.197 109.631 27.1698 109.608 27.1427L109.575 27.1058L109.502 27.0243L109.469 26.9874C109.446 26.9583 109.42 26.9311 109.397 26.904L109.366 26.869L109.297 26.7817L109.266 26.7468C109.242 26.7176 109.217 26.6905 109.191 26.6614L109.16 26.6264L109.088 26.543L109.057 26.508L108.982 26.4246L108.951 26.3897C108.928 26.3606 108.902 26.3334 108.877 26.3062L108.845 26.2713C108.822 26.2422 108.798 26.215 108.773 26.1878L108.742 26.151L108.667 26.0675L108.636 26.0326C108.613 26.0035 108.587 25.9763 108.562 25.9491L108.531 25.9142C108.507 25.8851 108.482 25.8579 108.458 25.8307L108.427 25.7958L108.353 25.7124L108.321 25.6755L108.247 25.592L108.218 25.5571L108.143 25.4737L108.112 25.4387L108.036 25.3533L108.007 25.3203C107.983 25.2912 107.958 25.2641 107.934 25.2369L107.903 25.202L107.827 25.1166L107.797 25.0816C107.772 25.0525 107.747 25.0254 107.723 24.9962L107.692 24.9633C106.971 24.0909 106.058 23.3945 105.023 22.9275H104.999C104.17 22.5534 103.297 22.2835 102.401 22.124C102.04 22.0689 101.675 22.0365 101.31 22.027C100.522 22.0106 99.7346 22.0848 98.9637 22.2482C98.3942 22.3703 97.8176 22.4572 97.2373 22.5083H97.1434C95.0002 22.7208 92.9361 23.4243 91.1135 24.5635C88.9874 25.9014 87.1156 27.6009 85.5841 29.5841C85.1864 28.8299 84.6994 28.1256 84.1333 27.4862C84.1099 27.4571 84.0845 27.4299 84.061 27.4027L84.0297 27.3678L83.9574 27.2863L83.9241 27.2475L83.8518 27.1659L83.8186 27.1291L83.7462 27.0456L83.7149 27.0107L83.6367 26.9234L83.6093 26.8923L83.5331 26.805L83.5038 26.772L83.4275 26.6847L83.4001 26.6536L83.3239 26.5663L83.2946 26.5352L83.2222 26.4537L83.189 26.4168C83.1655 26.3877 83.142 26.3606 83.1166 26.3334L83.0853 26.2965L83.013 26.2169L82.9798 26.1781C82.9563 26.151 82.9309 26.1238 82.9074 26.0947L82.8761 26.0597L82.8018 25.9763L82.7706 25.9414C82.7471 25.9123 82.7217 25.8851 82.6963 25.856L82.665 25.823L82.5946 25.7415L82.5613 25.7027L82.489 25.6211L82.4558 25.5843L82.3815 25.5008L82.3502 25.4659L82.2739 25.3786L82.2466 25.3456L82.1722 25.2621L82.141 25.2272L82.0647 25.1399L82.0354 25.1088L81.9631 25.0273L81.9298 24.9904C81.9063 24.9613 81.8829 24.9341 81.8575 24.907L81.7206 24.7517C81.6971 24.7245 81.6717 24.6974 81.6483 24.6683L81.617 24.6333L81.5427 24.5499L81.5114 24.5149C81.4879 24.4858 81.4625 24.4587 81.4371 24.4296L81.4058 24.3946L81.3335 24.3131L81.3022 24.2762L81.2298 24.1947L81.1966 24.1579L81.1243 24.0744L81.091 24.0395C81.0676 24.0104 81.0441 23.9832 81.0187 23.956L80.9874 23.9211C80.962 23.892 80.9385 23.8629 80.9131 23.8357L80.8818 23.8008C80.8583 23.7736 80.8329 23.7464 80.8095 23.7173L80.7782 23.6824L80.7019 23.597L80.6726 23.564L80.5983 23.4786L80.567 23.4437C80.5416 23.4165 80.5181 23.3874 80.4927 23.3583L80.4634 23.3253L80.3871 23.2399L80.3578 23.2069L80.2835 23.1235L80.2522 23.0885C80.2288 23.0594 80.2033 23.0323 80.1779 23.0031L80.1466 22.9682C80.1232 22.9391 80.0978 22.9119 80.0704 22.8828L80.043 22.8498C79.8671 22.6558 79.6989 22.4617 79.5268 22.287C78.1914 20.9285 76.4552 19.8941 74.3611 19.2285L74.2986 19.213C73.4448 18.961 72.5654 18.8041 71.6766 18.7452C71.5573 18.7452 71.4361 18.7317 71.311 18.7278C69.9521 18.6928 68.3214 18.9218 66.3232 19.407L66.157 19.4536C65.5956 19.5887 65.023 19.6732 64.4462 19.7059C59.2473 20.094 57.7984 23.0051 57.4269 24.2491C57.2394 24.898 57.0925 25.5578 56.987 26.2247C56.9733 26.2072 56.9577 26.1917 56.944 26.1762L56.9069 26.1354C56.8853 26.1083 56.8619 26.083 56.8404 26.0578L56.8013 26.0151L56.7348 25.9394L56.6977 25.8967L56.6292 25.821L56.5921 25.7783C56.5706 25.7512 56.5471 25.7259 56.5236 25.7007L56.4884 25.66L56.42 25.5823L56.3829 25.5416C56.3613 25.5144 56.3379 25.4892 56.3164 25.464L56.2773 25.4213L56.2088 25.3436L56.1736 25.3029L56.115 25.2291L56.0798 25.1884C56.0583 25.1612 56.0348 25.136 56.0114 25.1107L55.9742 25.07C55.9527 25.0428 55.9292 25.0176 55.9077 24.9924L55.8706 24.9497L55.8022 24.872L55.765 24.8313C55.7435 24.8041 55.72 24.7789 55.6966 24.7537L55.6594 24.7129C55.6379 24.6857 55.6145 24.6605 55.591 24.6333L55.5558 24.5945L55.4854 24.5149L55.4502 24.4742L55.3818 24.3966L55.3446 24.3558C55.3231 24.3286 55.2997 24.3034 55.2782 24.2782L55.241 24.2374L55.1706 24.1579L55.1354 24.119C55.1139 24.0919 55.0905 24.0666 55.067 24.0395L55.0298 23.9987C55.0083 23.9716 54.9849 23.9463 54.9614 23.9211L54.9262 23.8803L54.8578 23.8027L54.8206 23.762C54.7991 23.7348 54.7757 23.7096 54.7522 23.6843L54.715 23.6416L54.6486 23.5659L54.6114 23.5233L54.543 23.4476L54.5058 23.4049C54.4843 23.3777 54.4609 23.3525 54.4374 23.3253L54.4003 23.2865C54.3788 23.2593 54.3572 23.2341 54.3338 23.2089L54.2966 23.1662L54.2282 23.0905L54.1911 23.0478L54.1226 22.9702L54.0874 22.9294L54.019 22.8518L53.9818 22.811C53.9603 22.7838 53.9369 22.7586 53.9134 22.7334L53.8763 22.6926C53.8547 22.6655 53.8313 22.6383 53.8078 22.6131L53.7726 22.5723L53.7022 22.4947L53.6671 22.4539C53.6455 22.4268 53.6221 22.4015 53.5986 22.3763L53.5615 22.3355C53.54 22.3084 53.5165 22.2831 53.493 22.256L53.4578 22.2172L53.3894 22.1395L53.3523 22.0968L53.2858 22.0211L53.2467 21.9785C53.2252 21.9513 53.2017 21.9261 53.1802 21.9008L53.143 21.8601L53.0746 21.7824L53.0375 21.7397L52.969 21.6621L52.9319 21.6214C51.0744 19.3954 48.4838 18.1902 45.2303 18.0408H45.0347L44.8392 18.0524C42.4192 18.1973 40.0646 18.889 37.9549 20.0746C36.0458 21.1534 34.3418 22.5557 32.9202 24.218C32.883 24.1753 32.8459 24.1326 32.8146 24.0996C32.7833 24.0666 32.7403 24.0142 32.711 23.9813C32.6816 23.9483 32.6367 23.8959 32.6054 23.8629C32.5741 23.8299 32.5311 23.7755 32.4998 23.7445C32.4685 23.7134 32.4275 23.6572 32.3962 23.6242C32.3649 23.5912 32.3219 23.5388 32.2906 23.5058L32.187 23.3874L32.0814 23.2671C32.0442 23.2244 32.0071 23.1817 31.9758 23.1487L31.8722 23.0303C31.835 22.9876 31.7979 22.9449 31.7666 22.9119C31.7353 22.8789 31.6923 22.8246 31.661 22.7916C31.6297 22.7586 31.5867 22.7062 31.5554 22.6732C31.5241 22.6402 31.4831 22.5878 31.4518 22.5548C31.4205 22.5218 31.3775 22.4695 31.3462 22.4365L31.2406 22.3161C31.2054 22.2734 31.1683 22.2307 31.137 22.1978C31.1057 22.1648 31.0627 22.1124 31.0314 22.0794L30.9278 21.961C30.8906 21.9183 30.8535 21.8737 30.8222 21.8407C30.7909 21.8077 30.7479 21.7553 30.7166 21.7223C30.6854 21.6893 30.6423 21.6369 30.613 21.6039C30.5837 21.5709 30.5387 21.5185 30.5074 21.4855L30.4018 21.3652L30.2982 21.2468C30.2611 21.2041 30.2239 21.1614 30.1926 21.1284C30.1614 21.0954 30.1183 21.043 30.0871 21.01L29.9834 20.8897C29.9463 20.847 29.9091 20.8043 29.8778 20.7713C29.8466 20.7383 29.8035 20.6859 29.7723 20.653C29.741 20.62 29.698 20.5676 29.6686 20.5346L29.5631 20.4142C29.5259 20.3716 29.4888 20.3289 29.4575 20.2959C29.0395 19.8159 28.5415 19.4109 27.9852 19.0985L27.952 19.081C27.0425 18.5895 26.027 18.3232 24.9917 18.3047C24.7649 18.3047 24.5303 18.3047 24.2996 18.3183L24.1666 18.328C22.7304 18.4852 21.3617 19.0169 20.1995 19.8689L20.0861 19.9504L19.957 20.0591C19.1613 20.7306 17.732 22.4268 15.7025 25.1049L15.6868 25.0875L15.6556 25.0506L15.5871 24.9749L15.5265 24.905L15.4776 24.8507L15.4444 24.8119L15.372 24.7304L15.3408 24.6935C15.3134 24.6644 15.288 24.6333 15.2665 24.612L15.2332 24.5751L15.1628 24.4936L15.1296 24.4567C15.1061 24.4296 15.0827 24.4004 15.0573 24.3733C14.9869 24.2898 14.9145 24.2083 14.848 24.1365L14.8148 24.0996C14.7874 24.0686 14.762 24.0375 14.7425 24.0181L14.7112 23.9813C14.6838 23.9502 14.6584 23.9192 14.6369 23.8997L14.6056 23.8629C14.5821 23.8338 14.5567 23.8066 14.5313 23.7794C14.4629 23.694 14.3905 23.6125 14.3221 23.5427L14.2908 23.5058C14.2654 23.4747 14.238 23.4437 14.2185 23.4243L14.1872 23.3874C14.1598 23.3564 14.1324 23.3253 14.1129 23.3059L14.0816 23.269L14.0093 23.1856L13.976 23.1487L13.9037 23.0672L13.8724 23.0303L13.7981 22.9488L13.7688 22.9139L13.6945 22.8285L13.6612 22.7935L13.5889 22.7101L13.5556 22.6732C13.5302 22.6422 13.5028 22.6131 13.4833 22.5917L13.452 22.5548C13.4286 22.5296 13.407 22.5024 13.3777 22.4733L13.3503 22.4423L13.323 22.4112L13.2741 22.3549L13.2408 22.3181C13.2154 22.287 13.1881 22.2579 13.1685 22.2366L13.1372 22.1997L13.0649 22.1182L13.0316 22.0813C13.0062 22.0503 12.9788 22.0192 12.9593 21.9998L12.928 21.9629C12.9006 21.9319 12.8752 21.9008 12.8537 21.8795L12.8224 21.8445L12.7481 21.7359L12.7168 21.7009L12.6426 21.6175L12.6113 21.5826C12.5858 21.5515 12.5585 21.5204 12.537 21.4991L12.5057 21.4622L12.4333 21.3788L12.4001 21.3419L12.3278 21.2604L12.2945 21.2235C12.2691 21.1925 12.2417 21.1614 12.2222 21.142L12.1909 21.1051C12.1655 21.0741 12.1381 21.043 12.1186 21.0236C11.9323 20.8126 11.7283 20.6178 11.5085 20.4414L11.401 20.356L11.2504 20.2571C10.2717 19.6629 9.14807 19.3455 8.00085 19.3391C7.57643 19.3295 7.15183 19.3483 6.72995 19.3954C4.03761 19.6904 1.87905 21.3109 0.95618 23.729V23.7484C0.453687 25.0913 0.222971 26.7041 0.252299 28.6778C0.255525 28.8384 0.248995 28.9992 0.232747 29.159L0.219061 29.324C7.56237e-05 33.1414 -0.0546706 38.4259 0.0587323 45.4803C0.111523 48.7427 0.254255 51.4325 0.47715 53.4702C0.715687 55.8456 1.40588 57.6699 2.53013 58.8925L2.63376 59.009C2.667 59.0478 2.70219 59.0885 2.73152 59.1196L2.74912 59.1409L2.83515 59.238L2.9466 59.3641L3.05218 59.4825L3.15972 59.6067L3.26139 59.7212L3.35915 59.8318L3.46473 59.9521L3.47842 59.9677L3.57031 60.0705L3.584 60.0861L3.68567 60.2006C3.71891 60.2394 3.75215 60.2782 3.77952 60.3073L3.79321 60.3248C3.82645 60.3616 3.85773 60.3985 3.89488 60.4373C3.93203 60.4761 3.96136 60.5149 3.99069 60.546L4.00437 60.5615L4.10605 60.676L4.20772 60.7925C4.24096 60.8313 4.27615 60.872 4.30939 60.907L4.41693 61.0292C4.45016 61.07 4.48536 61.1088 4.51469 61.1399L4.52837 61.1554L4.61831 61.2582L4.63396 61.2757C4.66524 61.3126 4.69652 61.3495 4.73367 61.3883L4.83339 61.5008L4.94093 61.6231L5.05042 61.7473L5.14427 61.854L5.15991 61.8715L5.2479 61.9724L5.26158 61.9879L5.35739 62.0947C5.39258 62.1374 5.42778 62.1781 5.4571 62.2092L5.56269 62.3295L5.57637 62.345L5.66827 62.4479L5.68391 62.4673C5.71519 62.5022 5.74648 62.5391 5.77385 62.5663L5.78754 62.5837L5.87748 62.6847L5.89116 62.7002C5.9244 62.739 5.95569 62.7759 5.98697 62.8089C6.01825 62.8419 6.05736 62.8904 6.09255 62.9272L6.20204 63.0534L6.30176 63.1659L6.40539 63.2843L6.51684 63.4105L6.61264 63.5172C6.728 63.6492 6.82576 63.754 6.92157 63.8491C7.95041 64.8524 9.33494 65.4148 10.7773 65.4152C11.1069 65.4236 11.4368 65.41 11.7647 65.3745C13.145 65.225 15.1276 64.5768 16.7309 62.3237L16.7524 62.2926C17.6049 61.0642 18.0703 59.5582 18.1367 57.8154C22.1508 60.7905 24.589 61.9841 26.728 62.0403C26.902 62.0403 27.0741 62.0403 27.2383 62.0403C29.5982 61.8967 31.5241 60.9303 32.7129 59.3059L32.7794 59.3796L32.8087 59.4146L32.883 59.498L32.9104 59.5291L32.9886 59.6164L33.0121 59.6436L33.0942 59.7367L33.1196 59.7678L33.1978 59.8551L33.2232 59.8842L33.3034 59.9735L33.3327 60.0084C33.3601 60.0375 33.3855 60.0686 33.409 60.0919C33.6897 60.415 33.9978 60.7137 34.3299 60.9846C35.3767 61.8433 36.687 62.3224 38.0448 62.3431H38.4163C39.7283 62.3062 41.0383 61.8288 42.3072 60.9225L42.4754 60.8022L42.6591 60.6372C43.2693 60.1048 43.7964 59.4854 44.2233 58.7994L44.2468 58.8265L44.2742 58.8576C44.3015 58.8906 44.3309 58.9236 44.3524 58.9449L44.3758 58.974L44.4579 59.0652L44.4834 59.0944L44.5616 59.1836L44.585 59.2089L44.6672 59.302L44.6926 59.3311L44.7727 59.4223L44.8001 59.4534C44.8275 59.4864 44.8549 59.5174 44.8764 59.5388L44.8979 59.564L44.9819 59.6591L45.0074 59.6882L45.0856 59.7775L45.111 59.8066C45.1403 59.8396 45.1677 59.8726 45.1912 59.8959L45.2185 59.9289C45.2479 59.9599 45.2752 59.9929 45.2967 60.0142L45.3222 60.0453L45.4004 60.1346L45.4297 60.1656L45.5059 60.253L45.5314 60.2821C45.5587 60.3151 45.5881 60.348 45.6115 60.3713L45.6369 60.4024L45.7152 60.4917C46.7632 61.6891 48.257 62.3489 50.0558 62.3974H50.2083C52.1322 62.4211 53.9954 61.7287 55.4307 60.4567C56.0784 59.905 56.6151 59.2367 57.0124 58.4869C57.0476 58.5296 57.0848 58.5723 57.1161 58.6053C57.1473 58.6383 57.1904 58.6907 57.2216 58.7237C57.2529 58.7567 57.2959 58.811 57.3253 58.8421C57.3546 58.8731 57.3996 58.9294 57.4309 58.9624C57.4621 58.9954 57.5052 59.0478 57.5364 59.0808C57.5677 59.1138 57.6088 59.1662 57.6401 59.1992C57.6713 59.2321 57.7144 59.2845 57.7456 59.3175C57.7769 59.3505 57.8199 59.4049 57.8512 59.4379L57.9549 59.5562C57.992 59.5989 58.0292 59.6416 58.0604 59.6746L58.1641 59.793C58.2012 59.8376 58.2403 59.8803 58.2696 59.9133C58.299 59.9463 58.3439 59.9987 58.3752 60.0317L58.4789 60.1501L58.5844 60.2704C58.6216 60.3131 58.6587 60.3558 58.69 60.3888L58.7936 60.5072L58.8992 60.6256L59.0048 60.7459L59.1084 60.8623C59.1456 60.907 59.1827 60.9497 59.214 60.9827C59.2453 61.0157 59.2883 61.068 59.3196 61.101L59.4232 61.2194C60.3735 62.3217 61.7402 62.9466 63.3786 63.0262L63.6133 63.0359C64.4815 63.0659 65.3492 62.9638 66.1863 62.7332C66.29 62.7526 66.4679 62.7895 66.7495 62.8574L66.9782 62.9059C67.8757 63.0573 68.8572 63.1718 69.8934 63.2436C70.2082 63.2649 70.5289 63.2804 70.8495 63.2901C72.1898 63.3218 73.5305 63.2504 74.8597 63.0767C78.2638 62.6478 81.0891 61.3824 83.2554 59.3214L83.3493 59.2321L83.451 59.1196C83.6133 58.9391 83.7755 58.7528 83.9359 58.5587L83.9965 58.6266L84.0356 58.6713L84.1021 58.745L84.1412 58.7916C84.1646 58.8168 84.1861 58.844 84.2057 58.8634L84.2467 58.91L84.3113 58.9837L84.3523 59.0303L84.4168 59.1021L84.4579 59.1487L84.5205 59.2205L84.5615 59.2651C84.583 59.2923 84.6065 59.3175 84.6261 59.3389L84.6652 59.3835C84.6886 59.4107 84.7101 59.4379 84.7316 59.4592L84.7727 59.5058L84.8353 59.5776L84.8783 59.6242L84.9408 59.696L84.9819 59.7425C85.0034 59.7697 85.0269 59.7949 85.0464 59.8163L85.0875 59.8629L85.1501 59.9347L85.1911 59.9813L85.2556 60.0531L85.2967 60.0996L85.3593 60.1714L85.4003 60.2161L85.4649 60.2898L85.5059 60.3364L85.5704 60.4102L85.6115 60.4567L85.676 60.5285L85.7151 60.5751L85.7796 60.6469L85.8207 60.6935C85.8422 60.7187 85.8657 60.7459 85.8852 60.7653L85.9243 60.8119C85.9478 60.8371 85.9693 60.8643 85.9889 60.8837L86.0299 60.9303L86.0944 61.004L86.1355 61.0506L86.2 61.1224L86.2411 61.169L86.3036 61.2408L86.3447 61.2873C86.3682 61.3126 86.3897 61.3397 86.4092 61.3592L86.4503 61.4057L86.5148 61.4795L86.5539 61.5261L86.6184 61.5979L86.6595 61.6425C86.681 61.6697 86.7045 61.6949 86.724 61.7162L86.7651 61.7628L86.8296 61.8366L86.8707 61.8831L86.9332 61.9549L86.9743 62.0015L87.0388 62.0733L87.0799 62.1199C87.1014 62.1451 87.1248 62.1723 87.1444 62.1917L87.1835 62.2383C87.207 62.2635 87.2285 62.2907 87.248 62.3101L87.2891 62.3567L87.3536 62.4304L87.3947 62.477L87.4592 62.5488C89.1113 64.3808 91.2895 65.5064 93.931 65.8985C94.4743 65.9796 95.0221 66.0275 95.5714 66.0421H95.939C100.456 66.0421 104.395 63.7676 107.653 59.2787C109.788 56.3424 111.563 52.692 112.932 48.4283C114.944 42.1811 115.39 37.5506 114.291 34.2922ZM26.2274 45.001L25.9381 44.7953L25.8892 44.7623L24.7512 44.0151C25.1599 43.4989 25.6526 42.8759 26.245 42.1229C26.2001 43.1321 26.2001 44.0947 26.2274 45.001Z" fill="white"/>
<path d="M113.059 34.7502C112.443 32.9162 111.69 31.4937 110.781 30.4535C110.748 30.4127 110.711 30.3758 110.677 30.3351L110.572 30.2167L110.466 30.0983C110.433 30.0556 110.396 30.0188 110.363 29.978L110.257 29.8596L110.151 29.7412C110.118 29.7005 110.081 29.6617 110.048 29.6229C110.015 29.584 109.977 29.5433 109.942 29.5025L109.837 29.3841C109.803 29.3434 109.766 29.3046 109.733 29.2658L109.627 29.1474C109.592 29.1047 109.557 29.0678 109.522 29.0271C109.487 28.9863 109.453 28.9494 109.418 28.9087L109.313 28.7903L109.207 28.6719C109.174 28.6292 109.139 28.5923 109.103 28.5516L108.998 28.4332C108.965 28.3924 108.927 28.3536 108.892 28.3148C108.857 28.276 108.824 28.2352 108.789 28.1964C108.753 28.1576 108.718 28.1169 108.683 28.0761C108.648 28.0354 108.613 27.9985 108.577 27.9577C108.542 27.917 108.509 27.8782 108.474 27.8393L108.368 27.721C108.335 27.6783 108.298 27.6414 108.265 27.6006L108.159 27.4823L108.053 27.3639C108.02 27.3231 107.983 27.2843 107.95 27.2455C107.917 27.2067 107.879 27.1659 107.844 27.1252L107.739 27.0068C107.705 26.966 107.668 26.9272 107.635 26.8884L107.529 26.77C107.494 26.7273 107.459 26.6905 107.424 26.6497C107.389 26.6089 107.354 26.5721 107.32 26.5313L107.215 26.4129L107.109 26.2945C107.076 26.2519 107.039 26.215 107.005 26.1742L106.9 26.0558L106.794 25.9375C106.761 25.8967 106.726 25.8579 106.691 25.8191C106.078 25.0615 105.295 24.4567 104.405 24.053H104.387C103.655 23.7204 102.885 23.478 102.094 23.3311C101.786 23.2841 101.476 23.2569 101.165 23.2496C100.482 23.2353 99.7997 23.3004 99.1318 23.4437C98.5056 23.5775 97.8715 23.6722 97.2333 23.727H97.2039H97.1746C95.2498 23.9168 93.3957 24.5479 91.7586 25.5707C89.5851 26.9362 87.6976 28.7055 86.1999 30.7814L86.1882 30.797C85.8428 31.2873 85.5169 31.7848 85.2106 32.2894C85.1989 32.2428 85.191 32.1962 85.1793 32.1496C84.8004 30.7237 84.0868 29.4069 83.097 28.3071C83.0638 28.2663 83.0286 28.2275 82.9934 28.1887L82.8878 28.0684L82.7822 27.95C82.749 27.9092 82.7138 27.8704 82.6786 27.8316L82.573 27.7113L82.4674 27.5929L82.3638 27.4745L82.2582 27.3561L82.1526 27.2358L82.049 27.1174L81.9434 26.999C81.9102 26.9583 81.873 26.9195 81.8378 26.8806C81.8027 26.8418 81.7694 26.8011 81.7342 26.7603L81.6286 26.6419L81.5231 26.5236C81.4898 26.4828 81.4546 26.444 81.4194 26.4052L81.3138 26.2848L81.2083 26.1665L81.1046 26.0481L80.999 25.9297C80.9658 25.8889 80.9287 25.8501 80.8954 25.8094L80.7898 25.691L80.6843 25.5726C80.651 25.5319 80.6139 25.493 80.5806 25.4542L80.4751 25.3339L80.3695 25.2155L80.2658 25.0971L80.1603 24.9788L80.0547 24.8584L79.951 24.74L79.8455 24.6217L79.7399 24.5033C79.7066 24.4625 79.6714 24.4237 79.6363 24.383L79.5307 24.2646L79.4251 24.1462C79.3919 24.1054 79.3567 24.0666 79.3215 24.0278L79.2159 23.9094C79.1826 23.8687 79.1455 23.8299 79.1103 23.7891L79.0067 23.6707C78.8581 23.4961 78.7036 23.3253 78.5394 23.1603C77.335 21.9299 75.763 21.0003 73.8664 20.3987L73.8273 20.3871C73.0632 20.1617 72.2763 20.0212 71.481 19.9679C71.3793 19.9679 71.2738 19.9562 71.1643 19.9523C69.9305 19.9193 68.427 20.1289 66.546 20.5928L66.4952 20.6044L66.4444 20.6199C65.7889 20.7847 65.1192 20.8874 64.4442 20.9266C60.2835 21.2293 59.0478 23.2884 58.6567 24.513C58.5414 24.874 58.3615 25.5998 57.9841 27.915L57.6791 29.7898C57.6791 29.8324 57.6674 29.8771 57.6595 29.9198C57.6165 29.7898 57.5735 29.6597 57.5266 29.5316L57.507 29.4754L57.4816 29.4191C57.0971 28.5741 56.595 27.7868 55.9898 27.0805L55.8842 26.9602L55.7786 26.8418C55.7454 26.8011 55.7082 26.7623 55.675 26.7234L55.5694 26.6051C55.5362 26.5643 55.499 26.5255 55.4638 26.4847C55.4286 26.444 55.3934 26.4071 55.3602 26.3664L55.2546 26.248C55.2214 26.2072 55.1842 26.1684 55.149 26.1296C55.1138 26.0908 55.0787 26.05 55.0454 26.0093L54.9398 25.8909C54.9066 25.8501 54.8694 25.8113 54.8343 25.7725C54.7991 25.7337 54.7639 25.6929 54.7306 25.6541L54.625 25.5338C54.5918 25.493 54.5546 25.4562 54.5195 25.4154C54.4843 25.3747 54.4491 25.3358 54.4158 25.297L54.3102 25.1786C54.277 25.1379 54.2399 25.0991 54.2047 25.0583C54.1695 25.0176 54.1343 24.9807 54.101 24.9399L53.9955 24.8216C53.9622 24.7808 53.9251 24.742 53.8899 24.7032C53.8547 24.6644 53.8214 24.6236 53.7862 24.5829L53.6807 24.4645C53.6474 24.4237 53.6103 24.3849 53.5751 24.3461C53.5399 24.3073 53.5067 24.2665 53.4715 24.2277L53.3659 24.1074C53.3326 24.0666 53.2955 24.0298 53.2622 23.989L53.1567 23.8706L53.0511 23.7522C53.0178 23.7095 52.9807 23.6727 52.9475 23.6319L52.8419 23.5135C52.8086 23.4728 52.7715 23.434 52.7363 23.3951C52.7011 23.3563 52.6659 23.3156 52.6327 23.2768C52.5994 23.2379 52.5623 23.1972 52.5271 23.1564C52.4919 23.1157 52.4567 23.0788 52.4215 23.0381C52.3863 22.9973 52.3511 22.9585 52.3179 22.9197L52.2123 22.8013C52.1791 22.7586 52.1419 22.7217 52.1067 22.681C52.0715 22.6402 52.0363 22.6033 52.0031 22.5626L51.8975 22.4442C50.2629 20.4822 47.9362 19.3895 45.0542 19.2576H44.9369H44.8196C42.6138 19.3878 40.4671 20.0164 38.5433 21.0954C36.7255 22.1219 35.1099 23.4665 33.7745 25.0641C33.4656 25.429 33.1704 25.8055 32.8849 26.1917C32.7761 26.0297 32.6545 25.8765 32.5212 25.7337C32.486 25.6929 32.4528 25.6541 32.4157 25.6153C32.3785 25.5765 32.3472 25.5357 32.3101 25.495L32.2064 25.3766C32.1713 25.3378 32.138 25.297 32.1009 25.2582C32.0637 25.2194 32.0324 25.1786 31.9972 25.1398L31.8917 25.0195C31.8565 24.9807 31.8232 24.9399 31.7861 24.9011L31.6824 24.7827L31.5769 24.6644L31.4713 24.544L31.3677 24.4257L31.2621 24.3073C31.2269 24.2665 31.1936 24.2277 31.1565 24.1889C31.1193 24.1501 31.0881 24.1093 31.0529 24.0686L30.9473 23.9502C30.9121 23.9114 30.8789 23.8706 30.8417 23.8318C30.8046 23.793 30.7733 23.7522 30.7381 23.7134L30.6325 23.5931C30.5993 23.5543 30.5641 23.5135 30.5269 23.4747L30.4233 23.3563C30.3881 23.3156 30.3548 23.2768 30.3177 23.2379C30.2806 23.1991 30.2493 23.1584 30.2121 23.1196C30.175 23.0807 30.1437 23.0381 30.1085 22.9992C30.0733 22.9604 30.0401 22.9197 30.0029 22.8809C29.9658 22.842 29.9345 22.8013 29.8973 22.7625C29.8602 22.7237 29.8289 22.6829 29.7937 22.6421C29.7585 22.6014 29.7253 22.5626 29.6881 22.5238C29.651 22.485 29.6197 22.4442 29.5825 22.4054C29.5454 22.3666 29.5141 22.3258 29.4789 22.287L29.3733 22.1667C29.3401 22.1279 29.3049 22.0871 29.2677 22.0483L29.1641 21.9299C29.1289 21.8892 29.0957 21.8503 29.0585 21.8115C29.0214 21.7727 28.9901 21.732 28.9549 21.6912L28.8493 21.5728C28.8141 21.534 28.7809 21.4933 28.7437 21.4544C28.7066 21.4156 28.6753 21.3749 28.6401 21.3361L28.5345 21.2157C28.4993 21.1769 28.4661 21.1362 28.429 21.0974C28.0997 20.7163 27.706 20.3952 27.2656 20.1483L27.2382 20.1348C26.5029 19.7379 25.6819 19.5236 24.845 19.5099C24.6495 19.5099 24.4657 19.5099 24.2721 19.5099H24.2311H24.192C23.0039 19.6407 21.8723 20.0828 20.9131 20.7907L20.8368 20.8451L20.7645 20.9052C19.9296 21.6116 18.1054 23.8454 15.6809 27.1155C15.5437 26.8944 15.3852 26.6871 15.2077 26.4964L15.1021 26.378C15.067 26.3372 15.0337 26.2965 14.9966 26.2596C14.9594 26.2227 14.9281 26.1781 14.8929 26.1393C14.8577 26.1005 14.8245 26.0597 14.7874 26.0209C14.7502 25.9821 14.7189 25.9413 14.6818 25.9025C14.6446 25.8637 14.6133 25.821 14.5781 25.7841C14.543 25.7473 14.5097 25.7026 14.4726 25.6638C14.4354 25.625 14.4041 25.5843 14.367 25.5454L14.2634 25.4271C14.2282 25.3863 14.1949 25.3455 14.1578 25.3087C14.1206 25.2718 14.0893 25.2272 14.0522 25.1883L13.9486 25.07C13.9134 25.0312 13.8801 24.9904 13.843 24.9516C13.8058 24.9128 13.7746 24.8701 13.7374 24.8332C13.7003 24.7963 13.669 24.7517 13.6338 24.7129C13.5986 24.6741 13.5653 24.6333 13.5282 24.5945L13.4246 24.4761C13.3894 24.4354 13.3542 24.3946 13.319 24.3577C13.2838 24.3209 13.2506 24.2762 13.2134 24.2374L13.1098 24.119L13.0042 24.0006C12.969 23.9599 12.9358 23.9191 12.8986 23.8823C12.8615 23.8454 12.8302 23.8007 12.795 23.7619L12.6894 23.6436C12.6542 23.6047 12.621 23.564 12.5838 23.5252C12.5467 23.4864 12.5154 23.4437 12.4802 23.4068L12.3746 23.2865C12.3394 23.2476 12.3062 23.2069 12.269 23.1681L12.1654 23.0497C12.1302 23.0089 12.097 22.9682 12.0598 22.9313C12.0227 22.8944 11.9914 22.8498 11.9542 22.811L11.8506 22.6926C11.8154 22.6538 11.7822 22.613 11.745 22.5742C11.7079 22.5354 11.6766 22.4927 11.6394 22.4558C11.6023 22.419 11.571 22.3743 11.5358 22.3355C11.5006 22.2967 11.4674 22.256 11.4302 22.2171C11.3931 22.1783 11.3618 22.1376 11.3247 22.0988C11.2875 22.0599 11.2562 22.0172 11.221 21.9804C11.1858 21.9435 11.1526 21.8989 11.1154 21.86C10.967 21.6888 10.8041 21.5304 10.6286 21.3865L10.5582 21.3477L10.478 21.2972C9.6871 20.8225 8.78041 20.5715 7.85609 20.5714C7.49368 20.5631 7.13112 20.5793 6.77094 20.6199C4.58891 20.8586 2.90937 22.1143 2.16639 24.0647V24.0783C1.71864 25.2776 1.51334 26.7467 1.54072 28.5691C1.54531 28.779 1.53617 28.989 1.51334 29.1978V29.2483V29.2988C1.29827 33.0851 1.24939 38.3424 1.36084 45.3678C1.41363 48.5932 1.55636 51.25 1.77534 53.2625C2.01193 55.6282 2.68843 57.1265 3.54678 58.0541L3.65236 58.1725C3.68755 58.2133 3.72079 58.254 3.75794 58.2909C3.79509 58.3278 3.82637 58.3724 3.86157 58.4112L3.96715 58.5296C4.00234 58.5684 4.03558 58.6092 4.07273 58.648C4.10988 58.6868 4.14117 58.7295 4.17636 58.7664L4.28194 58.8867L4.38557 59.0051L4.49115 59.1234C4.52634 59.1642 4.56154 59.205 4.59673 59.2418C4.63193 59.2787 4.66516 59.3233 4.70036 59.3622L4.80594 59.4805L4.91152 59.5989C4.94672 59.6397 4.97996 59.6804 5.01515 59.7173L5.12073 59.8376L5.22631 59.956L5.32994 60.0744C5.36514 60.1151 5.40033 60.1559 5.43552 60.1928L5.54111 60.3131L5.64473 60.4315L5.75031 60.5499C5.78551 60.5906 5.8207 60.6314 5.8559 60.6682C5.89109 60.7051 5.92433 60.7498 5.95952 60.7886L6.0651 60.9069L6.17069 61.0253C6.20393 61.0661 6.23912 61.1068 6.27431 61.1437C6.30951 61.1806 6.3447 61.2252 6.3799 61.2621C6.41509 61.299 6.44833 61.3436 6.48548 61.3824C6.52263 61.4212 6.55391 61.462 6.58911 61.5008C6.6243 61.5396 6.65949 61.5823 6.69469 61.6192C6.72988 61.6561 6.76312 61.7007 6.80027 61.7395L6.9039 61.8579L7.00948 61.9763C7.04467 62.017 7.07791 62.0578 7.11506 62.0947C7.15221 62.1315 7.18349 62.1762 7.21869 62.215L7.32427 62.3334L7.4279 62.4517C7.46309 62.4925 7.49828 62.5333 7.53348 62.5701L7.62537 62.6846C8.03278 63.1564 8.5381 63.5353 9.10674 63.7952C9.67537 64.0551 10.2939 64.19 10.9199 64.1906C11.1889 64.1978 11.458 64.1867 11.7255 64.1576C12.8145 64.0392 14.3846 63.5191 15.677 61.7046L15.6926 61.6813C16.4493 60.5906 16.8403 59.205 16.856 57.5651C16.858 56.7543 16.8182 55.944 16.7367 55.1372C16.9968 55.3313 17.2783 55.537 17.5853 55.7699C22.1586 59.3 24.8489 60.7633 26.8726 60.8157C27.0036 60.8157 27.1366 60.8157 27.2636 60.8157C29.9482 60.6527 31.8056 59.2632 32.4587 57.0353C32.4743 57.0547 32.4939 57.0741 32.5115 57.0935C32.5291 57.1129 32.5799 57.173 32.6151 57.2118L32.7207 57.3322L32.8243 57.4506L32.9299 57.5689L33.0355 57.6873L33.1391 57.8057L33.2447 57.926L33.3503 58.0444L33.4539 58.1628L33.5595 58.2831L33.665 58.4015L33.7687 58.5199L33.8743 58.6383L33.9798 58.7567C34.0131 58.7974 34.0483 58.8382 34.0835 58.877L34.189 58.9954L34.2946 59.1137C34.3279 59.1545 34.3631 59.1933 34.3983 59.2321C34.6467 59.5193 34.9195 59.7848 35.2136 60.0259C36.0499 60.7162 37.098 61.1035 38.1855 61.1243H38.4847C39.5112 61.0952 40.5553 60.709 41.5876 59.9715L41.701 59.89L41.8027 59.7969C42.7412 58.9371 43.273 58.1706 43.4783 57.3807C43.5804 57.0179 43.6555 56.6482 43.7032 56.2745V56.257L43.7736 56.3327C43.8087 56.3735 43.842 56.4142 43.8791 56.4511C43.9163 56.488 43.9476 56.5326 43.9828 56.5714L44.0883 56.6898C44.1235 56.7306 44.1568 56.7694 44.1939 56.8082C44.2311 56.847 44.2624 56.8897 44.2976 56.9266L44.4031 57.0469C44.4383 57.0857 44.4716 57.1265 44.5087 57.1653C44.5459 57.2041 44.5771 57.2448 44.6123 57.2837L44.7179 57.404C44.7531 57.4428 44.7864 57.4836 44.8235 57.5224L44.9271 57.6408L45.0327 57.7591C45.0679 57.7999 45.1011 57.8406 45.1383 57.8775C45.1754 57.9144 45.2067 57.959 45.2419 57.9978L45.3475 58.1162C45.3827 58.157 45.4159 58.1958 45.4531 58.2346C45.4902 58.2734 45.5215 58.3161 45.5567 58.353L45.6623 58.4733C45.6975 58.5121 45.7307 58.5529 45.7679 58.5917C45.805 58.6305 45.8363 58.6713 45.8715 58.7101C45.9067 58.7489 45.9399 58.7916 45.9771 58.8304L46.0807 58.9488L46.1863 59.0672C46.2215 59.1079 46.2547 59.1467 46.2919 59.1855C46.329 59.2244 46.3603 59.2671 46.3955 59.3059L46.5011 59.4243C46.5363 59.4631 46.5695 59.5038 46.6067 59.5426C46.6438 59.5814 46.6751 59.6222 46.7103 59.661C47.5276 60.61 48.7203 61.1398 50.1886 61.1786H50.3157C51.8942 61.1967 53.4226 60.6292 54.6016 59.5873C55.5616 58.7722 56.2013 57.6473 56.4082 56.4103V56.3773L56.4747 55.9174L56.5372 55.9873L56.6428 56.1057C56.678 56.1464 56.7113 56.1852 56.7484 56.224C56.7856 56.2628 56.8168 56.3055 56.852 56.3444L56.9576 56.4627C56.9928 56.5035 57.0261 56.5423 57.0632 56.5811C57.1004 56.6199 57.1316 56.6607 57.1668 56.6995L57.2724 56.8198C57.3076 56.8586 57.3408 56.8994 57.378 56.9382C57.4151 56.977 57.4464 57.0178 57.4816 57.0566L57.5872 57.175C57.6224 57.2157 57.6556 57.2565 57.6928 57.2953L57.7964 57.4137L57.902 57.5321C57.9372 57.5728 57.9704 57.6116 58.0076 57.6505C58.0447 57.6893 58.076 57.732 58.1112 57.7708L58.2168 57.8892C58.252 57.9299 58.2852 57.9687 58.3224 58.0075C58.3595 58.0464 58.3908 58.0871 58.426 58.1259L58.5316 58.2462C58.5648 58.2851 58.6 58.3258 58.6372 58.3646C58.6743 58.4034 58.7056 58.4442 58.7408 58.483L58.8464 58.6014C58.8796 58.6421 58.9148 58.6829 58.952 58.7217L59.0556 58.8401L59.1612 58.9585C59.1944 58.9992 59.2296 59.0381 59.2648 59.0769L59.3704 59.1972C59.4056 59.236 59.4388 59.2768 59.4759 59.3156C59.5131 59.3544 59.5444 59.3951 59.5796 59.434L59.6852 59.5523C59.7204 59.5931 59.7536 59.6339 59.7907 59.6727L59.8944 59.791L59.9999 59.9094C60.0351 59.9502 60.0684 59.989 60.1055 60.0278C60.1427 60.0666 60.174 60.1093 60.2092 60.1481L60.3147 60.2665C60.3499 60.3073 60.3832 60.3461 60.4203 60.3849C61.1614 61.2543 62.2289 61.7531 63.5487 61.8171H63.754C64.5722 61.8487 65.3895 61.7371 66.1687 61.4872L66.3388 61.5047C66.6169 61.5456 66.8924 61.6026 67.1639 61.6755L67.2323 61.6929L67.3027 61.7046C68.1552 61.8501 69.0937 61.9588 70.0909 62.0287C70.3861 62.0481 70.6892 62.0636 70.9903 62.0714C72.261 62.1036 73.5324 62.0387 74.7932 61.8773C77.8883 61.4892 80.4399 60.3519 82.3794 58.5063L82.442 58.4461L82.4987 58.3821C83.0173 57.8113 83.4931 57.2035 83.9221 56.5637C84.0609 56.7344 84.2037 56.8994 84.3503 57.0566C84.3855 57.0954 84.4187 57.1381 84.4539 57.1769L84.5595 57.2953C84.5947 57.3341 84.6279 57.3749 84.6651 57.4137L84.7687 57.5321L84.8743 57.6524C84.9095 57.6912 84.9427 57.732 84.9799 57.7708L85.0835 57.8892L85.1891 58.0075C85.2243 58.0483 85.2575 58.089 85.2927 58.1279C85.3279 58.1667 85.3631 58.2074 85.3983 58.2462L85.5039 58.3646L85.6075 58.483L85.7131 58.6033C85.7483 58.6422 85.7815 58.6829 85.8187 58.7217L85.9223 58.8401L86.0279 58.9585C86.0631 58.9973 86.0963 59.04 86.1335 59.0788L86.2371 59.1972L86.3427 59.3156C86.3779 59.3544 86.4111 59.3951 86.4483 59.434C86.4854 59.4728 86.5167 59.5155 86.5519 59.5543L86.6575 59.6727C86.6927 59.7115 86.7259 59.7522 86.763 59.791L86.8667 59.9094L86.9723 60.0298C87.0075 60.0686 87.0407 60.1093 87.0778 60.1481L87.1815 60.2665L87.287 60.3849C87.3222 60.4257 87.3555 60.4664 87.3926 60.5052L87.4963 60.6236L87.6018 60.742C87.637 60.7808 87.6703 60.8216 87.7074 60.8604C87.7446 60.8992 87.7759 60.9419 87.8111 60.9807L87.9166 61.0991C87.9518 61.1379 87.9851 61.1786 88.0222 61.2175L88.1258 61.3358L88.2314 61.4562C88.2666 61.495 88.2999 61.5357 88.337 61.5745L88.4406 61.6929C89.9188 63.3386 91.8564 64.3498 94.2281 64.701C94.7196 64.7746 95.2152 64.818 95.7121 64.831C99.8885 64.9455 103.555 62.869 106.611 58.6616C108.662 55.8398 110.374 52.3135 111.694 48.1818C113.632 42.1637 114.078 37.7699 113.059 34.7502ZM27.7896 48.3099L27.77 48.2905L27.6645 48.1701L27.5608 48.0517L27.4553 47.9334C27.422 47.8926 27.3849 47.8538 27.3497 47.815C27.3145 47.7762 27.2812 47.7354 27.246 47.6947L27.1405 47.5763C26.5505 46.9069 25.877 46.3147 25.1364 45.8141L25.0992 45.7889C24.3171 45.2791 23.5911 44.8037 22.9211 44.3625C23.4861 43.6619 24.2897 42.6469 25.4629 41.1487L25.9497 40.5315C26.679 39.5612 27.3458 38.6762 27.9636 37.834C27.8111 38.6439 27.7003 39.4234 27.6312 40.1725V40.2133C27.4142 43.3844 27.465 46.0761 27.7896 48.3099Z" fill="#D85D1F"/>
<path d="M6.72403 59.4359C4.73557 59.3835 2.26221 58.2715 1.76167 53.2567C1.53878 51.2442 1.39996 48.5874 1.34717 45.3619C1.23572 38.3366 1.2846 33.0793 1.49967 29.2929V29.2425V29.192C1.5225 28.9832 1.53164 28.7732 1.52705 28.5632C1.49967 26.7409 1.70497 25.264 2.15272 24.0725V24.0589C2.8957 22.1182 4.57524 20.8528 6.75727 20.6141C7.11745 20.5735 7.48001 20.5573 7.84242 20.5656C8.76729 20.5675 9.67402 20.8205 10.4644 21.2973L10.5582 21.3477L10.6325 21.4059C11.7548 22.3103 12.2945 23.7794 12.2808 25.9006L12.2925 31.7576C12.488 31.5112 12.6836 31.2472 12.9084 30.9619C16.6996 25.6347 19.6363 21.8853 20.7664 20.9285L20.8388 20.8684L20.915 20.814C21.8743 20.1061 23.0059 19.664 24.194 19.5332H24.2331H24.2741C24.4696 19.5215 24.6652 19.5176 24.847 19.5332C25.6838 19.5469 26.5049 19.7612 27.2402 20.1581L27.2676 20.1716C28.6558 20.9635 29.3714 22.2249 29.2814 23.727C29.2409 24.2923 29.0985 24.8457 28.8611 25.3611L28.8298 25.4348L28.7926 25.5047C27.467 27.95 25.2987 31.123 21.7538 35.7904L21.267 36.4076C18.9735 39.3186 18.1034 40.417 17.6459 40.8906C18.6431 41.5834 20.3265 42.6838 22.182 43.8967C23.0593 44.4686 24.0304 45.1038 25.0953 45.8025L25.1325 45.8277C27.2539 47.3007 28.3879 48.9328 28.5013 50.6581V50.7687V50.8794C28.3058 53.934 26.2743 55.8747 23.0619 56.0688C22.9367 56.0688 22.8038 56.0804 22.6708 56.0688C20.6472 56.0125 17.9568 54.5512 13.3855 51.023C13.0785 50.7901 12.7989 50.5786 12.535 50.3903C12.6184 51.1969 12.6582 52.0073 12.6542 52.8181C12.6405 54.458 12.2495 55.8417 11.4928 56.9343L11.4772 56.9576C10.1848 58.7722 8.61473 59.2865 7.52567 59.4107C7.25934 59.437 6.99151 59.4455 6.72403 59.4359Z" fill="white"/>
<path d="M33.9878 56.3638C32.9003 56.343 31.8522 55.9557 31.0159 55.2654C28.1984 52.9773 27.0918 48.0537 27.6314 40.2133V40.1725C27.7977 38.5325 28.1038 36.9094 28.5465 35.3208C29.0426 33.5088 29.7097 31.7473 30.5388 30.0595C31.4094 28.2688 32.4974 26.5906 33.7786 25.0622C35.114 23.4646 36.7296 22.12 38.5474 21.0935C40.4712 20.0144 42.6179 19.3858 44.8237 19.2556H44.941H45.0583C48.8984 19.4322 51.7452 21.3011 53.2957 24.6624L53.3191 24.7168L53.3406 24.775C54.3613 27.5269 54.6272 31.5383 54.1521 37.0344C53.9272 39.5127 53.5655 42.5285 53.0669 46.0004C52.8714 47.3454 52.6759 48.6573 52.4627 49.8993L52.2164 51.6227V51.6557C52.0087 52.8923 51.3691 54.017 50.4098 54.8326C49.2308 55.8745 47.7024 56.442 46.1239 56.424H45.9968C43.9204 56.3677 42.3953 55.3372 41.6953 53.5226L41.6601 53.4256L41.6347 53.3246C41.404 52.3543 41.4001 50.9783 41.621 49.1133C41.7423 48.0945 41.8478 47.3531 41.9417 46.8447C42.0258 46.3964 42.1137 45.8995 42.2096 45.3561C42.2311 45.1621 42.2487 44.9932 42.2623 44.8224H42.2213C41.6372 44.8769 41.0568 44.965 40.4831 45.0864C39.815 45.2092 39.1603 45.395 38.5279 45.6414C38.4479 45.6723 38.3696 45.7073 38.2932 45.7462C38.2851 45.7748 38.2792 45.804 38.2756 45.8335C38.2756 45.9228 38.2541 46.4371 38.8016 47.8558C39.3686 49.3268 39.5954 50.5223 39.4977 51.5159C39.45 51.8896 39.3749 52.2593 39.2728 52.6221C39.0675 53.412 38.5357 54.1747 37.5972 55.0383L37.4936 55.1314L37.3802 55.213C36.3497 55.9504 35.3057 56.3366 34.2792 56.3657L33.9878 56.3638ZM42.8196 30.4205L42.7179 30.5408C41.8928 31.5345 41.056 32.9473 40.2309 34.7405L40.2172 34.7716L40.2015 34.8026C40.006 35.1907 39.8516 35.5265 39.7342 35.7962C40.0764 35.738 40.5026 35.6546 41.0364 35.542C41.6765 35.4267 42.3039 35.2499 42.9095 35.0141C42.9604 34.8572 42.9939 34.6951 43.0092 34.5309C43.0964 33.5845 43.0964 32.6322 43.0092 31.6858C42.9799 31.2597 42.9165 30.8366 42.8196 30.4205Z" fill="white"/>
<path d="M66.7904 57.3225C66.4893 57.3225 66.1863 57.2992 65.891 57.2798C64.8939 57.2099 63.9553 57.1012 63.1009 56.9557L63.0325 56.944L62.964 56.9266C62.6926 56.8537 62.4171 56.7967 62.1389 56.7558L61.9669 56.7383C61.1884 56.9883 60.3717 57.1 59.5541 57.0682H59.3469C57.4933 56.977 56.1188 56.0183 55.4794 54.3687C54.9672 53.0471 54.8929 51.2636 55.2839 48.9348C55.8705 42.4781 56.68 36.0427 57.6928 29.8053L57.9978 27.9306C58.3751 25.6153 58.555 24.8895 58.6704 24.5285C59.0438 23.3098 60.2893 21.2449 64.4578 20.9421C65.1328 20.9029 65.8026 20.8003 66.458 20.6355L66.5089 20.6199L66.5597 20.6083C68.4348 20.1445 69.9442 19.9349 71.1779 19.9679C71.2874 19.9679 71.393 19.9679 71.4947 19.9834C72.29 20.0367 73.0769 20.1773 73.841 20.4026L73.8801 20.4142C75.7766 21.0158 77.3486 21.9454 78.553 23.1758C79.7238 24.3498 80.5626 25.8089 80.9853 27.4066C81.3931 28.985 81.4132 30.6376 81.044 32.2253C81.0284 32.2952 80.9736 32.5145 80.739 33.4674C80.4789 34.5173 79.7614 35.7283 78.5061 37.277L78.4709 37.3197L78.4357 37.3604C78.1503 37.6768 77.8941 37.9426 77.6654 38.1833L77.7905 38.292L77.8061 38.3056C81.0479 41.17 82.2406 44.5158 81.349 48.24C80.913 50.0681 79.8885 51.8866 78.3067 53.641L78.25 53.705L78.1874 53.7652C76.2478 55.6108 73.6904 56.7442 70.6011 57.1362C69.3376 57.2954 68.0636 57.3577 66.7904 57.3225ZM66.4443 46.9785C66.4541 46.9785 66.6692 47.128 67.4356 47.1726C67.6468 47.1881 67.8365 47.1978 68.0007 47.2017C68.1518 47.2105 68.3032 47.2105 68.4543 47.2017L68.6635 47.1551H68.906C69.4215 47.1818 69.9381 47.1281 70.4369 46.996C70.4545 46.7825 70.3939 46.4487 69.8855 46.0082L69.8738 45.9985C69.3747 45.5754 68.7448 45.3344 68.0887 45.3154H67.8932C67.4457 45.3076 66.9985 45.3427 66.5577 45.4202C66.5242 45.5454 66.4974 45.6724 66.4776 45.8005C66.3309 46.5904 66.4189 46.9106 66.4502 46.9863L66.4443 46.9785ZM68.6459 30.405C68.4758 31.0143 68.2862 31.8799 68.0828 32.9803C68.0359 33.2306 67.9968 33.4577 67.9675 33.6615C68.9705 32.8172 69.5551 32.0022 69.7115 31.2317C69.7422 30.9727 69.7303 30.7106 69.6763 30.4554C69.6394 30.2605 69.5298 30.0865 69.3694 29.9683C69.2656 29.8666 69.1409 29.7885 69.0037 29.7393H68.904C68.7986 29.9533 68.7123 30.176 68.6459 30.405Z" fill="white"/>
<path d="M91.5044 60.0744C91.0075 60.0614 90.5119 60.018 90.0204 59.9444C86.6418 59.4437 84.143 57.6155 82.5906 54.5007C81.4917 52.3873 81.001 49.7829 81.13 46.7554C81.1828 44.6536 81.5856 42.0705 82.3266 39.0741C83.0773 36.0999 84.3817 33.2913 86.1726 30.7931L86.1843 30.7776C87.682 28.7017 89.5694 26.9324 91.743 25.5668C93.38 24.5441 95.2341 23.9129 97.159 23.7231H97.1883H97.2176C97.8558 23.6683 98.4899 23.5737 99.1161 23.4398C99.784 23.2965 100.466 23.2314 101.15 23.2457C101.461 23.253 101.771 23.2802 102.078 23.3272C102.87 23.4741 103.64 23.7165 104.372 24.0492H104.389C106.333 24.905 107.79 26.8477 108.847 29.9916C109.866 33.0113 109.42 37.4051 107.479 43.4193C106.151 47.553 104.436 51.0793 102.385 53.8991C99.3547 58.1124 95.6886 60.1889 91.5044 60.0744ZM97.333 33.6188C95.4364 35.1946 93.9876 37.7835 93.0315 41.3175C92.7717 42.3214 92.5881 43.3431 92.4821 44.3741V44.4091C92.1477 46.932 92.3354 48.2594 92.5524 48.927C92.627 49.1806 92.7376 49.4224 92.8809 49.6451C93.6826 48.828 94.9007 46.963 96.242 42.6935C96.7229 41.0672 97.1159 39.4971 97.4151 38.0222C97.6641 36.8539 97.8365 35.6709 97.9313 34.4804C97.9609 34.0811 97.9233 33.6797 97.8198 33.2927C97.6869 33.3801 97.5344 33.4771 97.3408 33.6188H97.333Z" fill="white"/>
<path d="M50.2082 23.5853C50.175 23.5426 50.1379 23.5058 50.1046 23.465L49.999 23.3466C49.9658 23.3059 49.9286 23.269 49.8934 23.2282C49.8583 23.1875 49.8231 23.1487 49.7898 23.1099C49.7566 23.071 49.7194 23.0303 49.6842 22.9895C49.649 22.9488 49.6139 22.9119 49.5787 22.8712C49.5435 22.8304 49.5083 22.7935 49.475 22.7528L49.3694 22.6344C49.3362 22.5917 49.2991 22.5548 49.2639 22.5141C49.2287 22.4733 49.1935 22.4364 49.1602 22.3957L49.0547 22.2773C49.0214 22.2365 48.9843 22.1977 48.9491 22.1589C47.6215 20.5443 45.7542 19.6729 43.3728 19.5623C41.5058 19.6707 39.6887 20.2018 38.0604 21.1148C36.4807 22.0063 35.077 23.1748 33.9173 24.5634C32.7466 25.9597 31.7531 27.4933 30.9591 29.1299C30.1831 30.7065 29.5592 32.3524 29.0957 34.0457C28.6826 35.5315 28.3975 37.0494 28.2433 38.5831C27.7857 45.2241 28.5561 49.5985 30.4918 51.7449L30.5973 51.8633L30.7029 51.9817C30.7362 52.0224 30.7714 52.0612 30.8066 52.1L30.9121 52.2204L31.0177 52.3388C31.051 52.3795 31.0862 52.4183 31.1213 52.4571L31.2269 52.5755L31.3325 52.6958C31.3657 52.7366 31.4009 52.7754 31.4361 52.8142L31.5417 52.9326L31.6473 53.051C31.6805 53.0917 31.7157 53.1306 31.7509 53.1713C31.9495 53.4063 32.1694 53.6226 32.4079 53.8176C32.9772 54.2972 33.7068 54.5478 34.453 54.5201C35.0318 54.5046 35.649 54.2626 36.3046 53.7943C36.9069 53.2431 37.2581 52.7754 37.3585 52.3912C37.4354 52.1171 37.4942 51.8383 37.5345 51.5567C37.6049 50.8483 37.4093 49.8799 36.9381 48.6553C36.4669 47.4307 36.2538 46.5108 36.3125 45.8859C36.3504 45.5411 36.4539 45.2066 36.6175 44.9C36.7915 44.5565 37.2295 44.2402 37.9353 43.9569C38.7006 43.6551 39.4936 43.4277 40.3031 43.2776C40.9637 43.1414 41.6315 43.0416 42.3033 42.9788C42.532 42.9632 42.7295 42.9516 42.8898 42.9438C42.8722 43.231 42.8449 43.526 42.8077 43.854C42.7087 44.4233 42.6148 44.9408 42.5262 45.4066C42.4375 45.8723 42.3398 46.5898 42.2329 47.5588C42.0374 49.2071 42.0315 50.4149 42.2153 51.1821C42.3514 51.5562 42.5607 51.8998 42.8312 52.1932C42.8664 52.234 42.8996 52.2747 42.9368 52.3135C42.9739 52.3523 43.0052 52.3931 43.0404 52.4319L43.146 52.5503C43.1812 52.591 43.2144 52.6318 43.2516 52.6687C43.2887 52.7056 43.32 52.7502 43.3552 52.789L43.4608 52.9074C43.494 52.9481 43.5292 52.9869 43.5663 53.0258C43.6035 53.0646 43.6348 53.1073 43.67 53.1441L43.7756 53.2645C43.8088 53.3052 43.844 53.344 43.8811 53.3829C43.9183 53.4217 43.9496 53.4624 43.9848 53.5012C44.02 53.54 44.0552 53.5827 44.0903 53.6196C44.6124 54.2465 45.3691 54.5628 46.3682 54.5725C47.3973 54.5937 48.3959 54.2244 49.1602 53.5401C49.7541 53.0274 50.1461 52.3228 50.2669 51.5508C50.349 50.9822 50.4292 50.4136 50.5113 49.8469C50.7159 48.6268 50.916 47.333 51.1116 45.9655C51.6017 42.5266 51.9595 39.5702 52.185 37.0965C52.6308 31.9206 52.4 28.0703 51.4674 25.5532C51.1433 24.8416 50.7194 24.179 50.2082 23.5853ZM43.625 29.8072C43.7223 30.8627 43.7223 31.9248 43.625 32.9803C43.5136 33.9196 43.2027 34.5522 42.6982 34.8802C42.1938 35.2082 41.2553 35.5148 39.9062 35.7982C38.9168 36.0103 38.1347 36.1475 37.5599 36.2096C37.7996 35.5125 38.0911 34.8339 38.4319 34.1796C39.3444 32.204 40.2718 30.6514 41.2142 29.5219C42.0276 28.5438 42.7145 27.9855 43.275 27.8471C43.4628 28.486 43.5801 29.1432 43.625 29.8072Z" fill="#EB790B"/>
<path d="M106.968 30.7252C106.395 29.0251 105.704 27.7358 104.896 26.8574C104.863 26.8166 104.827 26.7758 104.792 26.737L104.687 26.6187L104.583 26.5003L104.477 26.3819L104.372 26.2616C104.337 26.2227 104.303 26.182 104.266 26.1432L104.163 26.0248L104.057 25.9064C104.022 25.8657 103.989 25.8249 103.953 25.7861L103.848 25.6677L103.742 25.5493L103.639 25.4309C103.204 24.9076 102.658 24.4867 102.039 24.1986C101.452 23.9283 100.834 23.7289 100.199 23.6047C99.4624 23.5016 98.7126 23.5312 97.9862 23.6921C97.2671 23.8456 96.5389 23.9538 95.8061 24.0162C94.2275 24.1673 92.706 24.6809 91.3619 25.5163C89.4331 26.7287 87.7587 28.2997 86.4308 30.143C84.7848 32.4356 83.5876 35.015 82.9016 37.7466C82.1821 40.6538 81.8008 43.0913 81.7578 45.0592C81.6366 47.8305 82.0661 50.1484 83.0463 52.0127C83.4272 52.8014 83.9197 53.532 84.5088 54.1824C84.544 54.2232 84.5772 54.262 84.6144 54.3008C84.6515 54.3396 84.6828 54.3823 84.718 54.4211L84.8236 54.5395C84.8588 54.5783 84.892 54.6191 84.9292 54.6579C84.9663 54.6967 84.9976 54.7375 85.0328 54.7763L85.1384 54.8966C85.1736 54.9354 85.2068 54.9762 85.244 55.015L85.3476 55.1334L85.4532 55.2518C85.4884 55.2925 85.5216 55.3333 85.5568 55.3721L85.6624 55.4905L85.768 55.6088C86.99 56.9926 88.5737 57.8251 90.5485 58.1162C94.5039 58.6984 97.8825 57.0197 100.808 52.9889C102.71 50.3728 104.327 47.0756 105.608 43.0816C107.399 37.5254 107.87 33.4033 106.968 30.7252ZM90.6423 49.6412C90.2513 48.4328 90.2063 46.6823 90.5074 44.3896C90.6278 43.2657 90.8337 42.1525 91.1233 41.0594C92.1987 37.0926 93.8606 34.1486 96.1737 32.2564C97.0653 31.5953 97.657 31.2867 97.949 31.3307L98.4339 31.4005C98.519 31.8625 98.5505 32.3326 98.5278 32.8017C98.4299 34.0823 98.2463 35.3549 97.9783 36.6113C97.6681 38.1639 97.2634 39.7811 96.7641 41.4631C95.5539 45.3212 94.2224 47.945 92.8146 49.3404C92.2183 49.8644 91.7979 50.1167 91.5476 50.1167C91.2973 50.1167 91.1566 50.1031 91.1272 50.0992C91.006 50.08 90.8868 50.0495 90.7714 50.008C90.7225 49.8896 90.6834 49.7693 90.6423 49.6412Z" fill="#EB790B"/>
<path d="M26.6809 22.1842C26.6497 22.1434 26.6125 22.1046 26.5773 22.0658C26.5421 22.027 26.5069 21.9862 26.4717 21.9474C26.4365 21.9086 26.4033 21.8678 26.3662 21.8271C26.329 21.7863 26.2977 21.7475 26.2625 21.7087C26.2273 21.6699 26.1921 21.6291 26.1569 21.5903C26.1239 21.549 26.0887 21.5095 26.0514 21.4719C26.0201 21.4312 25.9829 21.3924 25.9477 21.3516C25.9125 21.3108 25.8773 21.272 25.8422 21.2332C25.8091 21.1919 25.7739 21.1524 25.7366 21.1148C25.7053 21.0741 25.6681 21.0353 25.6329 20.9965C25.5978 20.9576 25.5626 20.9169 25.5274 20.8761C25.3118 20.6089 25.0462 20.3855 24.7453 20.2182C24.1563 19.9079 23.4896 19.7731 22.8252 19.8301C22.0328 19.9212 21.279 20.22 20.6413 20.6956C19.8729 21.3438 17.2705 24.5382 13.1371 30.3526C11.919 31.9323 10.9864 33.0987 10.3235 33.8458C10.3157 33.3102 10.3157 32.6911 10.3235 31.9886C10.3235 30.0259 10.3203 28.0638 10.3138 26.1024C10.3242 24.6793 10.04 23.663 9.46129 23.0536C9.42819 23.0123 9.39295 22.9728 9.35571 22.9352C9.32247 22.8945 9.28728 22.8537 9.25208 22.8168C9.21689 22.78 9.18365 22.7353 9.1465 22.6965C9.10935 22.6577 9.07807 22.6169 9.04092 22.5781C9.00377 22.5393 8.97249 22.4966 8.93729 22.4597C8.9021 22.4229 8.86886 22.3782 8.83171 22.3394C8.79456 22.3006 8.76328 22.2598 8.72613 22.221C8.68898 22.1822 8.65769 22.1415 8.6225 22.1027C8.58731 22.0638 8.55407 22.0211 8.51692 21.9843C8.48382 21.943 8.44857 21.9035 8.41134 21.8659C8.3781 21.8232 8.3429 21.7844 8.30771 21.7456C8.27252 21.7067 8.23928 21.666 8.20213 21.6272C8.11037 21.5145 8.00754 21.4111 7.89516 21.3186C7.27861 20.9305 6.45611 20.792 5.42766 20.9033C4.05901 21.0547 3.13223 21.7417 2.6708 22.9527C2.29931 23.9282 2.12594 25.2045 2.15071 26.7817C2.15551 27.0662 2.14245 27.3507 2.11161 27.6336C1.89653 31.4154 1.84439 36.731 1.95519 43.5804C2.00602 46.7929 2.14093 49.3747 2.35992 51.3257C2.53589 53.0918 2.96604 54.3552 3.65037 55.1295C3.68361 55.1722 3.7188 55.2091 3.75399 55.2479C3.78919 55.2867 3.82438 55.3275 3.85958 55.3663C3.89477 55.4051 3.92996 55.4458 3.96516 55.4866C4.00035 55.5273 4.03359 55.5662 4.06878 55.605C4.10398 55.6438 4.13917 55.6845 4.17437 55.7234C4.20956 55.7622 4.24475 55.8029 4.27995 55.8417C4.31514 55.8806 4.34838 55.9213 4.38358 55.9621L4.49698 56.0863C4.53022 56.129 4.56737 56.1658 4.60256 56.2046C4.63775 56.2435 4.67099 56.2842 4.70619 56.323C4.74138 56.3618 4.77658 56.4026 4.81177 56.4434C4.84696 56.4841 4.88216 56.5229 4.91735 56.5617C5.54824 57.3548 6.41766 57.6912 7.52562 57.5709C8.44262 57.4719 9.2208 56.9693 9.87189 56.0552C10.3978 55.2983 10.6696 54.2834 10.6794 53.0103C10.6814 52.2272 10.6409 51.4446 10.5582 50.6659C10.4708 49.8146 10.3985 48.982 10.3411 48.1682C10.3373 47.7487 10.3885 47.3305 10.4936 46.9242C11.2503 47.1028 12.6855 47.9644 14.7463 49.5364C18.8522 52.7114 21.5895 54.3086 23.1537 54.2096C25.2712 54.0815 26.3935 53.0103 26.5226 50.9667C26.4717 50.2021 26.1002 49.4355 25.4003 48.6728L25.2966 48.5544C25.2615 48.5156 25.2282 48.4748 25.1911 48.436L25.0855 48.3157L24.9819 48.1973C24.9467 48.1585 24.9134 48.1177 24.8763 48.0789C24.8391 48.0401 24.8078 47.9994 24.7707 47.9606C24.7335 47.9217 24.7023 47.881 24.6671 47.8402L24.5615 47.7218C24.5263 47.683 24.493 47.6423 24.4559 47.6035C24.4188 47.5646 24.3875 47.5239 24.3523 47.4851L24.2467 47.3648L24.1431 47.2464C23.6511 46.6999 23.0944 46.2144 22.485 45.8006C19.1005 43.5784 16.6546 42.0045 15.2312 41.0245C15.4952 40.5515 15.8316 40.122 16.2283 39.7514C16.6194 39.3535 17.9215 37.702 20.1896 34.8259C23.3629 30.6417 25.6916 27.3154 27.0485 24.808C27.1948 24.4963 27.2835 24.161 27.3105 23.8182C27.334 23.5436 27.2999 23.2672 27.2104 23.0063C27.1209 22.7455 26.9779 22.5058 26.7904 22.3025C26.7561 22.2611 26.7196 22.2216 26.6809 22.1842Z" fill="#EB790B"/>
<path d="M77.202 40.5102C77.1668 40.4714 77.1336 40.4306 77.0965 40.3918L76.9928 40.2734L76.8872 40.1531C76.8521 40.1143 76.8188 40.0735 76.7817 40.0347L76.678 39.9163L76.5725 39.7979L76.4669 39.6776L76.3633 39.5592C76.3261 39.5204 76.2948 39.4797 76.2577 39.4408C76.2205 39.402 76.1892 39.3613 76.1521 39.3225L76.0582 39.2021C75.8236 38.9421 75.5694 38.6859 75.2996 38.4259C75.2774 38.3576 75.2721 38.2851 75.284 38.2143C75.3205 38.0448 75.5284 37.7602 75.9077 37.3604C76.1931 37.0965 76.551 36.7239 76.985 36.2445C78.0154 34.9811 78.6294 33.9778 78.8151 33.2287L79.1123 32.0235C79.4194 30.7016 79.402 29.3258 79.0615 28.0121C78.7466 26.821 78.1508 25.7214 77.3233 24.8041L77.2177 24.6857C77.1844 24.6449 77.1493 24.6061 77.1141 24.5654L77.0085 24.447L76.9029 24.3286C76.8697 24.2879 76.8345 24.249 76.7993 24.2102L76.6937 24.0899L76.5881 23.9715L76.4845 23.8531L76.3789 23.7348C76.3457 23.694 76.3085 23.6552 76.2733 23.6144L76.1697 23.4961L76.0641 23.3777C75.937 23.2282 75.8041 23.0827 75.6731 22.9391C74.6576 21.904 73.3353 21.1278 71.7059 20.6102C71.0799 20.4255 70.4354 20.3096 69.7839 20.2648C68.7437 20.1988 67.3145 20.3832 65.5059 20.8295C64.7017 21.0363 63.8793 21.1663 63.0501 21.2177C60.8564 21.3729 59.5796 22.0735 59.214 23.2865C59.0836 23.7095 58.8796 24.7588 58.602 26.4343L58.297 28.309C57.249 34.756 56.4649 41.1176 55.8979 47.3744C55.4463 50.1302 55.6692 51.972 56.5607 52.9171C56.594 52.9578 56.6292 52.9986 56.6644 53.0355C56.6996 53.0723 56.7348 53.117 56.77 53.1558C56.8052 53.1946 56.8384 53.2354 56.8755 53.2742C56.9127 53.313 56.944 53.3537 56.9792 53.3925C57.0144 53.4314 57.0476 53.4741 57.0847 53.5109C57.1178 53.5528 57.1531 53.593 57.1903 53.6313C57.2236 53.672 57.2588 53.7108 57.294 53.7496C57.3292 53.7885 57.3624 53.8292 57.3995 53.868C57.4326 53.9093 57.4679 53.9488 57.5051 53.9864C57.5384 54.0291 57.5736 54.0679 57.6088 54.1067C57.6439 54.1455 57.6772 54.1863 57.7143 54.2251C57.7515 54.2639 57.7828 54.3047 57.8199 54.3435C58.2579 54.8791 58.8822 55.1663 59.693 55.2052C60.3768 55.2592 61.0643 55.1638 61.7069 54.9257C61.8311 54.9042 61.9564 54.8893 62.0823 54.8811C62.2634 54.8769 62.4445 54.8873 62.6239 54.9121C62.9804 54.9636 63.3336 55.0355 63.6817 55.1275C64.4794 55.2569 65.3443 55.3565 66.2763 55.4264C67.7082 55.518 69.1457 55.4692 70.568 55.2809C73.1762 54.9509 75.2605 54.0427 76.8638 52.5231C78.2031 51.0385 79.0654 49.5383 79.429 48.0129C80.0684 45.3406 79.3938 42.8623 77.3252 40.6208C77.2705 40.5897 77.2314 40.549 77.202 40.5102ZM70.2708 28.4448C70.3579 28.9008 70.3645 29.3684 70.2903 29.8266C69.9873 31.3287 68.8395 32.7668 66.8785 34.1621C66.5653 34.3956 66.2285 34.5959 65.8735 34.7599C65.9258 34.1256 66.0126 33.4946 66.1335 32.8696C66.3486 31.7052 66.5513 30.7847 66.7416 30.108C67.162 28.7282 67.7798 28.0024 68.5932 27.9383C68.8442 27.9083 69.097 27.8954 69.3499 27.8995C69.6447 27.9202 69.9318 28.0022 70.1926 28.1402C70.225 28.24 70.2511 28.3418 70.2708 28.4448ZM70.9883 45.7675C70.7381 46.932 69.5082 47.4831 67.2988 47.4637C66.7711 47.5345 66.2365 47.5404 65.7073 47.4812C65.2786 47.4584 64.8541 47.3861 64.4423 47.2658C64.3823 46.7359 64.4087 46.1998 64.5205 45.6783C64.7212 44.5992 65.1279 43.9491 65.7405 43.7279C66.6286 43.5171 67.5423 43.4322 68.4544 43.4756C69.3125 43.5173 70.144 43.7853 70.8632 44.2518C71.062 44.732 71.1057 45.2616 70.9883 45.7675Z" fill="#EB790B"/>
<path d="M24.7394 20.2182C24.1505 19.9079 23.4837 19.7731 22.8194 19.8301C22.0269 19.9212 21.2732 20.22 20.6354 20.6956C19.867 21.3438 17.2646 24.5382 13.1312 30.3526C10.8867 33.2636 9.61184 34.7754 9.2208 34.8705C9.02528 34.7204 8.93729 33.2468 8.95684 30.4496C8.95684 28.4882 8.95358 26.5262 8.94707 24.5635C8.9575 22.9824 8.60556 21.9028 7.89125 21.3244C7.2747 20.9363 6.4522 20.7979 5.42375 20.9091C4.0551 21.0605 3.12832 21.7475 2.66689 22.9585C2.298 23.9301 2.12594 25.2045 2.15071 26.7817C2.15551 27.0662 2.14245 27.3507 2.11161 27.6336C1.89653 31.4154 1.84439 36.731 1.95519 43.5804C2.00602 46.7929 2.14093 49.3747 2.35992 51.3257C2.69426 54.7025 3.95538 56.257 6.15305 56.0203C6.84306 55.9406 7.48409 55.6266 7.9675 55.1314C8.23345 54.9469 8.46224 54.7145 8.64205 54.4464C8.95772 53.9457 9.14564 53.3761 9.18952 52.7871C9.27068 52.3492 9.31191 51.9049 9.3127 51.4596C9.31481 50.6785 9.27369 49.8978 9.18952 49.1211C9.10349 48.2685 9.03179 47.4353 8.97444 46.6215C8.97444 46.4119 8.98813 46.2139 9.00768 46.0393C9.02854 45.9267 9.05395 45.818 9.08393 45.7132L9.17192 45.4008C9.94032 45.6045 11.3579 46.4604 13.3796 48.0013C17.4855 51.1763 20.2228 52.7735 21.787 52.6745C22.8937 52.6066 23.7246 52.2864 24.2878 51.6925C24.759 51.4092 24.9897 50.9162 25.0601 50.1399C25.1083 49.9037 25.1403 49.6644 25.1559 49.4238C25.0757 48.2128 24.1919 46.998 22.4674 45.8005C17.028 42.2316 14.0189 40.3336 13.7667 39.8853C13.9622 39.3419 14.3963 38.7209 15.1471 37.9679C15.4599 37.6554 16.7504 36.0175 18.5355 33.7507L18.9911 33.1685C22.3462 28.7418 24.4813 25.6289 25.7072 23.3777C25.7854 23.2052 25.8337 23.0208 25.85 22.8324C25.85 22.8032 25.85 22.7741 25.85 22.745C25.8925 22.5896 25.9187 22.4303 25.9282 22.2696C26.0044 21.3924 25.5958 20.7073 24.7394 20.2182Z" fill="#FB9245"/>
<path d="M43.3727 19.5623C41.5058 19.6707 39.6886 20.2018 38.0604 21.1148C36.4807 22.0063 35.0769 23.1748 33.9173 24.5634C32.7466 25.9597 31.753 27.4933 30.959 29.1299C30.1831 30.7065 29.5592 32.3524 29.0957 34.0457C28.6826 35.5315 28.3974 37.0494 28.2432 38.5831C27.7446 45.8238 28.7046 50.3709 31.045 52.2728C31.6141 52.7515 32.3428 53.002 33.0882 52.9753C33.6696 52.9598 34.2868 52.7178 34.9398 52.2495C35.0337 52.1641 35.1178 52.0826 35.1979 52.0011C35.2468 51.972 35.2977 51.939 35.3465 51.904C35.8705 51.413 35.9487 51.1937 35.9487 51.1937C36.0112 50.9764 36.0595 50.7554 36.0934 50.532C36.0934 50.4931 36.0934 50.4524 36.0934 50.4058C36.1229 50.2777 36.1458 50.1481 36.1619 50.0177C36.2322 49.3074 36.0367 48.339 35.5655 47.1163C35.1139 45.9519 34.9027 45.0553 34.9379 44.4323C35.015 44.0956 35.1339 43.7697 35.2918 43.462C35.4123 43.2276 35.5701 43.014 35.7591 42.8293C36.0116 42.6627 36.2817 42.5241 36.5646 42.4159C37.3297 42.1154 38.1219 41.8879 38.9305 41.7367C39.5912 41.6012 40.2589 41.5021 40.9306 41.4398C41.394 41.4087 41.7127 41.3913 41.9083 41.3913C42.1735 41.3698 42.4392 41.4279 42.6708 41.5582C42.8311 41.6727 42.9093 41.9463 42.9035 42.3888C42.9012 42.8802 42.8732 43.3713 42.8194 43.8598C42.7203 44.4291 42.6265 44.9466 42.5378 45.4124C42.4492 45.8782 42.3475 46.5936 42.2328 47.5588C42.0373 49.2071 42.0314 50.4149 42.2152 51.1821C42.6806 52.4028 43.6074 53.0141 45.0053 53.0258C46.0341 53.0478 47.0323 52.6784 47.7954 51.9933C47.8404 51.9545 47.8834 51.9137 47.9245 51.873C48.0074 51.8125 48.087 51.7477 48.163 51.6789L48.1748 51.6692C48.5333 51.3525 48.7674 50.9201 48.8356 50.4485L48.8923 50.0507L48.9041 49.9983L49.0996 48.5544C49.2443 47.6888 49.385 46.7903 49.5239 45.8685C49.5942 45.393 49.6666 44.9097 49.737 44.4149C50.2271 40.9772 50.5849 38.0216 50.8104 35.5478C51.2581 30.372 51.0274 26.5197 50.0948 24.0045C48.8043 21.208 46.5461 19.7097 43.3727 19.5623ZM37.1043 32.759C38.0487 30.7038 39.0439 29.0426 40.0625 27.8199C40.3749 27.4371 40.7133 27.076 41.0753 26.739C41.4898 26.4207 41.8555 26.2603 42.1722 26.2577C42.2837 26.2551 42.394 26.2806 42.4928 26.3318C42.5917 26.3831 42.6758 26.4584 42.7373 26.5507C43.2352 27.4279 43.5311 28.5128 43.6249 29.8053C43.7222 30.8608 43.7222 31.9228 43.6249 32.9783C43.5135 33.9176 43.2026 34.5503 42.6982 34.8783C42.1937 35.2062 41.2552 35.5148 39.9061 35.7982C38.557 36.0815 37.5892 36.2387 37.0085 36.2503C36.3281 36.2659 36.0035 36.0097 36.0309 35.4876C36.1716 34.8045 36.5216 33.9234 37.1043 32.761V32.759Z" fill="#FB9245"/>
<path d="M74.9908 38.1561C74.3397 37.5933 73.9819 37.1625 73.9174 36.852C74.0484 36.4949 74.3201 36.1165 74.807 35.6041L74.8383 35.5731L74.8715 35.542C75.1159 35.3149 75.4385 34.9792 75.8335 34.5425C76.9499 33.1685 77.2979 32.4291 77.3977 32.0487C77.5267 31.5228 77.6753 30.927 77.689 30.8649C77.7476 30.6068 77.7887 30.3487 77.8219 30.0886C78.0446 28.8879 78.0006 27.6533 77.6929 26.4712C77.3408 25.138 76.64 23.9208 75.6614 22.943C74.646 21.9079 73.3236 21.1317 71.6943 20.6141C71.0683 20.4294 70.4238 20.3135 69.7723 20.2687C68.7321 20.2027 67.3028 20.3871 65.4943 20.8334C64.69 21.0403 63.8677 21.1702 63.0385 21.2216C60.8447 21.3768 59.568 22.0774 59.2024 23.2904C59.072 23.7134 58.868 24.7627 58.5904 26.4382L58.2854 28.3129C57.2374 34.7599 56.4533 41.1215 55.8863 47.3783C55.2176 51.4693 56.029 53.5517 58.3166 53.6643C59.0012 53.718 59.6894 53.622 60.3325 53.3829C60.4561 53.3621 60.5808 53.3478 60.7059 53.3402C60.8876 53.3361 61.0694 53.3464 61.2495 53.3712C61.6058 53.423 61.9589 53.4942 62.3072 53.5847C63.105 53.7141 63.9698 53.8144 64.9018 53.8855C66.3331 53.9773 67.7701 53.9279 69.1916 53.738C71.6649 53.4256 73.6749 52.5911 75.2371 51.2151C75.4327 51.0715 75.6008 50.9182 75.7729 50.7571C76.946 49.4452 77.6949 48.1294 78.0018 46.8427C78.0679 46.5657 78.1175 46.2851 78.1504 46.0024C78.6666 43.1379 77.6518 40.5044 74.9908 38.1561ZM63.0815 44.6361L63.0932 44.5643C63.2751 43.594 63.6172 42.8487 64.1158 42.3248C64.1972 42.2695 64.2852 42.2245 64.3778 42.1908C65.2659 41.98 66.1796 41.8951 67.0917 41.9386C68.1457 41.9776 69.155 42.3711 69.9541 43.0545C70.8672 43.8463 71.2074 44.7545 70.9884 45.7714C70.7382 46.9359 69.5083 47.487 67.2989 47.4676C66.7712 47.5384 66.2366 47.5443 65.7074 47.4851C64.8451 47.4249 64.2097 47.2561 63.7952 46.9708C63.1851 46.5768 62.9446 45.8006 63.0815 44.6361ZM64.6242 32.204C64.6516 32.0468 64.6789 31.8974 64.7043 31.7576C64.9312 30.5389 65.1384 29.6015 65.3398 28.8912V28.8699C65.6605 27.8141 66.0926 27.1038 66.5618 26.6284C66.7597 26.4976 66.9877 26.4189 67.2246 26.3994C67.4758 26.3714 67.7285 26.3584 67.9813 26.3606C68.5238 26.4128 69.0331 26.6437 69.4282 27.0165C69.873 27.3789 70.1704 27.8892 70.265 28.4526C70.3521 28.9086 70.3587 29.3762 70.2846 29.8344C69.9815 31.3365 68.8338 32.7746 66.8727 34.1699C66.3335 34.5863 65.7119 34.8852 65.0485 35.0471C64.4932 35.0096 64.3518 34.0593 64.6242 32.1962V32.204Z" fill="#FB9245"/>
<path d="M105.604 29.1804C104.704 26.5041 103.5 24.841 102.039 24.1986C101.452 23.9283 100.834 23.7289 100.199 23.6047C99.4624 23.5016 98.7126 23.5312 97.9862 23.6921C97.2671 23.8456 96.5389 23.9538 95.8061 24.0162C94.2275 24.1673 92.706 24.6809 91.3619 25.5163C89.4331 26.7287 87.7587 28.2997 86.4308 30.143C84.7848 32.4356 83.5876 35.015 82.9016 37.7466C82.1821 40.6538 81.8008 43.0913 81.7578 45.0592C81.6366 47.8305 82.0661 50.1484 83.0463 52.0127C84.3504 54.6501 86.3702 56.1561 89.1837 56.5714C92.1166 57.0081 94.7444 56.1833 97.0965 54.0873C98.0444 53.291 98.8861 52.378 99.6012 51.3703C101.441 48.8474 102.993 45.6259 104.216 41.8202C104.913 39.7468 105.435 37.6196 105.778 35.4605C106.186 32.8638 106.139 30.7659 105.604 29.1804ZM89.2796 48.0964C88.8885 46.8867 88.8435 45.1362 89.1446 42.8448C89.174 42.5732 89.2092 42.3092 89.2463 42.0472C89.365 41.3069 89.5216 40.573 89.7156 39.8484C90.8281 35.7419 92.5213 32.7338 94.8774 30.6631C95.7298 30.0362 96.3008 29.7432 96.5843 29.7839L97.0692 29.8557C98.1035 30.011 98.5942 30.9949 98.5317 32.8037C98.4338 34.0842 98.2503 35.3569 97.9823 36.6133C97.672 38.1658 97.2673 39.7831 96.7681 41.465C95.5578 45.3231 94.2263 47.947 92.8185 49.3423C92.2222 49.8663 91.8018 50.1186 91.5515 50.1186C91.3013 50.1186 91.1605 50.105 91.1311 50.1011C90.2845 49.9711 89.6706 49.3054 89.2796 48.0964Z" fill="#FB9245"/>
<path d="M86.7944 9.25714L86.8062 9.23968C86.9105 9.09686 86.9831 8.93365 87.019 8.76087C87.055 8.58809 87.0535 8.4097 87.0146 8.23754C86.9758 8.06538 86.9005 7.90339 86.7938 7.76231C86.6871 7.62124 86.5513 7.50431 86.3956 7.4193L85.5842 6.97488C85.3261 6.83224 85.0253 6.78546 84.7356 6.84291L84.6691 6.85455L80.8193 6.21024C80.9386 5.79881 81.0461 5.39709 81.1458 5.01089C81.4649 4.79942 81.6945 4.47895 81.791 4.1104C81.833 3.95135 81.8427 3.78563 81.8197 3.62281C81.7968 3.46 81.7415 3.30332 81.6571 3.16184C81.5728 3.02035 81.461 2.89687 81.3283 2.79853C81.1955 2.70018 81.0445 2.62893 80.8838 2.58889L79.2316 2.17746C79.0673 2.13421 78.8958 2.12481 78.7277 2.14985C78.5595 2.17488 78.3983 2.23381 78.254 2.32302C77.9692 2.4973 77.7653 2.77637 77.687 3.0993C77.5091 3.87558 77.3077 4.70232 77.0418 5.58145L73.7648 5.04582C73.5277 5.00657 73.2851 5.01407 73.0509 5.06787C72.8167 5.12168 72.5955 5.22075 72.3999 5.35942C72.2042 5.4981 72.038 5.67366 71.9108 5.87608C71.7835 6.0785 71.6976 6.30383 71.6581 6.53919C71.6185 6.77455 71.6261 7.01533 71.6803 7.2478C71.7345 7.48026 71.8343 7.69985 71.974 7.89403C72.1137 8.08821 72.2906 8.25317 72.4946 8.3795C72.6985 8.50583 72.9255 8.59105 73.1626 8.63029L75.7044 9.05143C74.3494 11.879 72.6073 13.7324 70.1164 15.0171C69.9363 15.1103 69.7817 15.2455 69.6659 15.411C69.55 15.5765 69.4763 15.7674 69.4511 15.9674C69.4259 16.1674 69.45 16.3705 69.5213 16.5592C69.5925 16.7479 69.7088 16.9167 69.8603 17.051C70.0895 17.2498 70.3002 17.4687 70.4898 17.705C70.6596 17.9635 70.9202 18.15 71.2209 18.2282C71.5217 18.3064 71.8409 18.2707 72.1166 18.1281C75.3603 16.4552 77.7867 13.6916 79.5464 9.68604L82.6885 10.2042C81.9064 13.548 81.1986 15.3568 80.8134 15.9079C80.7645 15.9661 80.7313 16.003 80.7078 16.0263L80.5788 16.0088C79.682 15.7991 78.8034 15.5194 77.951 15.1724C77.7617 15.0937 77.5559 15.0622 77.3516 15.0808C77.1473 15.0993 76.9506 15.1673 76.7789 15.2788C76.6072 15.3902 76.4656 15.5418 76.3666 15.7202C76.2675 15.8985 76.2141 16.0983 76.2108 16.3019C76.2053 16.5077 76.1883 16.7131 76.16 16.9171C76.1072 17.3289 76.1958 17.7464 76.4115 18.102C76.6272 18.4577 76.9574 18.7308 77.3488 18.8772C78.239 19.2077 79.1543 19.4673 80.0861 19.6535C80.3521 19.7 80.6215 19.7247 80.8916 19.7272C81.4318 19.7291 81.9651 19.6075 82.4502 19.3719C82.9354 19.1364 83.3595 18.7931 83.6896 18.3687L83.7052 18.3513C84.7043 17.0917 85.7034 14.1361 86.7553 9.3173C86.7694 9.2979 86.7824 9.27782 86.7944 9.25714Z" fill="#D1660D"/>
<path d="M105.216 7.90253C104.928 7.3782 104.61 6.87025 104.264 6.38102C103.962 5.95025 103.508 5.64769 102.991 5.53307C102.475 5.41845 101.934 5.50012 101.476 5.76194L101.437 5.78523C101.283 5.87209 101.15 5.99052 101.046 6.13261C100.728 5.94295 100.366 5.83904 99.996 5.8312C99.6255 5.82337 99.2595 5.9119 98.9342 6.08798L98.8579 6.12873H98.8462C98.8272 6.0845 98.8049 6.04169 98.7797 6.00064C98.6917 5.85681 98.5754 5.73211 98.4376 5.63406C98.2998 5.53601 98.1435 5.46662 97.9781 5.43008L96.3787 5.07881L96.3122 5.06523C95.9844 5.01246 95.6488 5.09061 95.3788 5.2826C95.1088 5.47459 94.9263 5.76482 94.8712 6.08992L94.4802 8.36636L90.5267 7.71816C90.0479 7.6396 89.5572 7.75283 89.1624 8.033C88.7676 8.31316 88.5009 8.73737 88.4209 9.2125C88.3812 9.44787 88.3885 9.68871 88.4426 9.92126C88.4966 10.1538 88.5963 10.3735 88.736 10.5678C88.8756 10.7621 89.0524 10.9271 89.2564 11.0536C89.4603 11.18 89.6873 11.2653 89.9245 11.3046L90.8493 11.456C90.6415 11.5688 90.47 11.7377 90.3546 11.9431C89.523 13.4683 88.3357 14.7739 86.8919 15.7507C86.7332 15.8548 86.6003 15.9934 86.5034 16.156C86.4066 16.3186 86.3482 16.5009 86.3328 16.6892C86.3173 16.8774 86.3452 17.0667 86.4143 17.2427C86.4834 17.4187 86.5919 17.5768 86.7316 17.705L87.6076 18.5065C87.8403 18.7197 88.1453 18.8382 88.462 18.8384C88.7197 18.8385 88.9712 18.7592 89.1815 18.6113C90.9715 17.3189 92.466 15.6655 93.5671 13.7596C93.5787 13.7415 93.5891 13.7227 93.5984 13.7033L92.8436 18.1921L92.4018 18.1184C91.9423 18.0427 91.4241 17.9573 90.951 17.8642L90.8845 17.8525C90.6752 17.8224 90.4616 17.8453 90.2636 17.9191C90.0656 17.9928 89.8895 18.115 89.7518 18.2743C89.6141 18.4337 89.5192 18.625 89.4759 18.8305C89.4326 19.0359 89.4423 19.2489 89.5041 19.4497C89.554 19.6275 89.588 19.8094 89.6058 19.9931C89.6531 20.3856 89.8275 20.7523 90.1029 21.0379C90.3783 21.3236 90.7398 21.5126 91.1328 21.5767C91.8739 21.7175 92.6251 21.7993 93.3794 21.8212C94.8321 21.8212 96.1167 21.3302 96.4569 19.2983L97.2038 14.8347C98.1743 16.4858 98.986 18.2239 99.6283 20.0261C99.6821 20.1843 99.7674 20.3301 99.8793 20.4548C99.9912 20.5795 100.127 20.6806 100.279 20.7519C100.383 20.8016 100.494 20.8362 100.608 20.8548C100.826 20.8915 101.05 20.87 101.257 20.7927L102.446 20.3502C102.6 20.293 102.742 20.2061 102.863 20.0944C102.984 19.9827 103.081 19.8484 103.149 19.6993C103.218 19.5502 103.256 19.3891 103.261 19.2254C103.266 19.0617 103.239 18.8985 103.181 18.7452C102.549 17.1227 101.794 15.5495 100.925 14.039C100.595 13.4682 100.059 13.043 99.4249 12.8494L101.521 13.1948C101.996 13.274 102.483 13.1644 102.877 12.8899C103.271 12.6153 103.54 12.1978 103.627 11.7277C103.675 11.4483 103.655 11.1616 103.57 10.8912C103.635 10.9022 103.7 10.9074 103.766 10.9067C103.977 10.9066 104.186 10.8539 104.372 10.7534C104.862 10.4842 105.226 10.0339 105.384 9.5002C105.542 8.96649 105.482 8.39242 105.216 7.90253ZM98.373 7.84237C98.4112 7.91102 98.4557 7.97599 98.506 8.03644C98.8017 8.39538 99.0685 8.77695 99.3037 9.17757L98.1814 8.9835L98.373 7.84237ZM93.6961 12.8086C93.6536 12.6498 93.5798 12.5008 93.4792 12.3702C93.3785 12.2397 93.2529 12.1302 93.1095 12.0479L92.5601 11.7354L93.8916 11.9567L93.7274 12.927C93.7157 12.896 93.7078 12.8552 93.6961 12.8086ZM97.7786 12.896C97.683 12.9289 97.5917 12.9732 97.5068 13.0279L97.5851 12.566L98.7093 12.7601C98.3931 12.7503 98.0777 12.7976 97.7786 12.8998V12.896Z" fill="#D1660D"/>
<path d="M85.4297 7.84043L85.4434 7.82297C85.5473 7.67992 85.6195 7.5166 85.6552 7.3438C85.6908 7.171 85.689 6.99266 85.65 6.82058C85.611 6.6485 85.5357 6.4866 85.4289 6.34558C85.3222 6.20457 85.1865 6.08766 85.0308 6.00259L84.2214 5.55817C83.9613 5.41917 83.6603 5.37522 83.3708 5.43396L83.3044 5.44755L79.4545 4.811C79.5738 4.39957 79.6813 3.9959 79.7811 3.61165C80.1008 3.40053 80.3312 3.08001 80.4282 2.71116C80.5118 2.38895 80.4633 2.047 80.2933 1.76022C80.2077 1.61828 80.0945 1.49471 79.9602 1.39674C79.8259 1.29877 79.6733 1.22836 79.5112 1.18965L77.8669 0.776282C77.7048 0.735049 77.536 0.726449 77.3705 0.750992C77.205 0.775535 77.0462 0.832722 76.9033 0.919182C76.7604 1.00564 76.6365 1.11962 76.5387 1.2544C76.4409 1.38918 76.3713 1.54203 76.334 1.70394C76.1561 2.48022 75.9547 3.30696 75.6888 4.18609L72.4001 3.6427C71.9212 3.56369 71.4303 3.67674 71.0354 3.95699C70.6405 4.23723 70.3739 4.66171 70.2943 5.13704C70.2147 5.61237 70.3286 6.09962 70.6109 6.49159C70.8933 6.88357 71.3209 7.14816 71.7998 7.22717L74.3416 7.6483C72.9866 10.4759 71.2465 12.3293 68.7555 13.614C68.5751 13.7069 68.4202 13.8419 68.304 14.0074C68.1878 14.1729 68.114 14.364 68.0888 14.5641C68.0636 14.7643 68.0878 14.9675 68.1593 15.1563C68.2309 15.3451 68.3476 15.5138 68.4994 15.6479C68.7268 15.8467 68.9356 16.0656 69.1231 16.3019C69.2932 16.5605 69.5542 16.7471 69.8553 16.8253C70.1563 16.9035 70.4759 16.8677 70.7518 16.725C73.9936 15.0521 76.422 12.2885 78.1817 8.28097L81.3218 8.80108C80.5397 12.1449 79.8319 13.9517 79.4467 14.5048C79.4138 14.5462 79.3785 14.5857 79.3411 14.6232L79.2121 14.6057C78.3153 14.396 77.4367 14.1163 76.5843 13.7693C76.396 13.6924 76.1917 13.6622 75.9891 13.6811C75.7864 13.7001 75.5914 13.7677 75.421 13.878C75.2505 13.9884 75.1096 14.1383 75.0105 14.3148C74.9113 14.4913 74.8569 14.689 74.8519 14.891C74.8463 15.0968 74.8294 15.3022 74.8011 15.5062C74.7487 15.9175 74.8371 16.3342 75.0519 16.6897C75.2668 17.0451 75.5957 17.3186 75.986 17.4663C76.8758 17.7979 77.7912 18.0575 78.7233 18.2426C78.9891 18.2911 79.2586 18.3164 79.5288 18.3183C80.069 18.3201 80.6023 18.1986 81.0874 17.963C81.5726 17.7274 81.9967 17.3841 82.3268 16.9598L82.3404 16.9423C83.3415 15.6828 84.3406 12.7271 85.3925 7.90836L85.4297 7.84043Z" fill="#F1F2F2"/>
<path d="M103.854 6.48582C103.565 5.96165 103.247 5.45371 102.901 4.96431C102.599 4.5324 102.143 4.22909 101.626 4.11444C101.108 3.99979 100.567 4.08216 100.107 4.34523L100.066 4.36658C99.9127 4.45453 99.7795 4.57355 99.6753 4.7159C99.3579 4.52722 98.9965 4.42371 98.6266 4.41554C98.2568 4.40738 97.8911 4.49483 97.5656 4.66933L97.4893 4.71202H97.4795C97.46 4.66933 97.4365 4.62663 97.4131 4.58394C97.3239 4.44075 97.2069 4.31658 97.0689 4.21864C96.931 4.12069 96.7748 4.05092 96.6095 4.01337L95.0238 3.66986L94.9554 3.65628C94.7929 3.62963 94.6268 3.63499 94.4665 3.67207C94.3062 3.70914 94.1548 3.7772 94.021 3.87235C93.8872 3.96751 93.7736 4.08789 93.6866 4.22664C93.5997 4.36538 93.5412 4.51977 93.5144 4.68097L93.1331 6.95741L89.1581 6.30146C88.679 6.22233 88.1878 6.33529 87.7926 6.61551C87.3973 6.89573 87.1304 7.32027 87.0504 7.79579C87.0109 8.03116 87.0186 8.27194 87.0729 8.50437C87.1272 8.7368 87.2271 8.95633 87.3669 9.15043C87.5067 9.34453 87.6837 9.50938 87.8877 9.63558C88.0917 9.76178 88.3188 9.84685 88.5559 9.88593L89.4788 10.0392C89.2715 10.1521 89.1006 10.321 88.9861 10.5264C88.1543 12.0521 86.9662 13.3578 85.5214 14.334C85.3624 14.438 85.2295 14.5767 85.1325 14.7393C85.0356 14.902 84.9773 15.0844 84.962 15.2728C84.9468 15.4612 84.9749 15.6506 85.0444 15.8265C85.1139 16.0025 85.2229 16.1604 85.363 16.2883L86.237 17.0898C86.4697 17.303 86.7748 17.4215 87.0914 17.4217C87.35 17.4212 87.602 17.3412 87.8129 17.1927C89.6025 15.8998 91.097 14.2465 92.1985 12.3409C92.2094 12.3228 92.2192 12.304 92.2278 12.2846L91.4751 16.7735L91.0312 16.6997C90.5717 16.624 90.0536 16.5387 89.5824 16.4436H89.5159C89.3058 16.4127 89.0912 16.4354 88.8923 16.5095C88.6934 16.5836 88.5167 16.7067 88.3789 16.8672C88.2411 17.0276 88.1466 17.2202 88.1044 17.4269C88.0622 17.6335 88.0736 17.8474 88.1375 18.0485C88.1856 18.2267 88.2189 18.4084 88.2372 18.5919C88.2852 18.9845 88.4602 19.3511 88.7358 19.6366C89.0115 19.9221 89.373 20.1112 89.7662 20.1755C90.5066 20.3162 91.2572 20.398 92.0108 20.4201C93.4635 20.4201 94.7481 19.9291 95.0883 17.8971L95.8372 13.4452C96.8072 15.0942 97.6183 16.8304 98.2597 18.6307C98.3137 18.789 98.3992 18.935 98.511 19.06C98.6229 19.185 98.7588 19.2865 98.9108 19.3585C99.0154 19.4082 99.1267 19.4428 99.2412 19.4613C99.4587 19.4981 99.682 19.4766 99.8884 19.3992L101.085 18.9587C101.24 18.9013 101.382 18.8142 101.502 18.7023C101.623 18.5904 101.72 18.456 101.789 18.3067C101.857 18.1574 101.895 17.9963 101.9 17.8324C101.906 17.6685 101.878 17.5052 101.82 17.3518C101.187 15.7299 100.433 14.1569 99.5658 12.6456C99.2352 12.0701 98.695 11.6423 98.0563 11.4501L100.152 11.7956C100.46 11.8471 100.777 11.8194 101.071 11.7151C101.365 11.6108 101.627 11.4334 101.833 11.1998C102.038 10.9663 102.18 10.6843 102.245 10.3809C102.309 10.0775 102.294 9.7628 102.201 9.46674C102.266 9.47769 102.331 9.48288 102.397 9.48226C102.609 9.48232 102.817 9.42961 103.003 9.32895C103.492 9.06039 103.855 8.61191 104.014 8.08011C104.173 7.54831 104.116 6.97577 103.854 6.48582ZM97.0103 6.42566C97.0475 6.4944 97.0914 6.5594 97.1413 6.61973C97.4386 6.97949 97.7073 7.36167 97.9449 7.7628L96.8226 7.56873L97.0103 6.42566ZM92.3334 11.3958C92.2908 11.2369 92.2171 11.088 92.1165 10.9574C92.0158 10.8269 91.8902 10.7173 91.7468 10.635L91.1955 10.3226L92.527 10.5419L92.3627 11.5122C92.353 11.4792 92.3432 11.4366 92.3334 11.3958ZM96.4159 11.4812C96.3204 11.5152 96.2292 11.5601 96.1441 11.6151L96.2204 11.1532L97.3446 11.3473C97.0295 11.3363 96.7149 11.3817 96.4159 11.4812Z" fill="#F1F2F2"/>
<path d="M84.3875 6.98652L83.5722 6.54015C83.5259 6.51428 83.4717 6.50601 83.4197 6.51687L83.1714 6.56538L78.6294 5.81433C78.5493 5.79935 78.4731 5.76796 78.4059 5.72214C78.3387 5.67633 78.2819 5.61711 78.239 5.54827C78.1961 5.47942 78.1682 5.40246 78.157 5.3223C78.1457 5.24213 78.1515 5.16053 78.1738 5.08269C78.3693 4.48107 78.5218 3.88333 78.6939 3.21185C78.7167 3.13654 78.7561 3.06718 78.8092 3.00879C78.8623 2.9504 78.9277 2.90442 79.0009 2.87417C79.0718 2.84066 79.1341 2.79166 79.1832 2.73082C79.2323 2.66998 79.2669 2.5989 79.2844 2.5229C79.2989 2.46487 79.2898 2.40351 79.259 2.35212C79.2282 2.30095 79.1783 2.26397 79.1201 2.24926L77.4621 1.8359C77.4034 1.82228 77.3416 1.83204 77.2901 1.86306C77.2647 1.87859 77.2427 1.89891 77.2252 1.92289C77.2078 1.94686 77.1953 1.97402 77.1884 2.0028C76.9498 3.04301 76.7152 3.96678 76.4063 4.94102C76.364 5.07169 76.2757 5.18285 76.1576 5.25414C76.0394 5.32543 75.8994 5.35206 75.763 5.32916L72.0853 4.72172C71.8755 4.68697 71.6604 4.73636 71.4874 4.85901C71.3143 4.98167 71.1974 5.16754 71.1624 5.37573C71.1274 5.58393 71.1771 5.79741 71.3007 5.96919C71.4243 6.14098 71.6115 6.257 71.8213 6.29174L74.9497 6.80797C75.0345 6.82201 75.1151 6.85482 75.1854 6.90399C75.2557 6.95315 75.314 7.0174 75.3559 7.09197C75.3977 7.16654 75.4222 7.24952 75.4273 7.33474C75.4325 7.41996 75.4182 7.50524 75.3857 7.58425C73.8997 10.9358 71.9288 13.1152 69.0859 14.5824C69.0534 14.5989 69.0254 14.6231 69.0046 14.6529C68.9838 14.6827 68.9708 14.7172 68.9667 14.7532C68.9621 14.7889 68.9662 14.8253 68.9788 14.8591C68.9914 14.8929 69.0121 14.9231 69.039 14.9473C69.3367 15.2048 69.6066 15.4923 69.8446 15.8051C69.8612 15.831 69.8833 15.853 69.9093 15.8698C69.9352 15.8865 69.9645 15.8975 69.9951 15.9021C70.0431 15.9105 70.0926 15.903 70.1359 15.8807C73.2388 14.2797 75.5616 11.5763 77.2236 7.62501C77.2745 7.50658 77.3635 7.40825 77.4767 7.3454C77.5899 7.28254 77.7209 7.25871 77.8493 7.27762L81.8184 7.93358C81.8951 7.94751 81.9683 7.9765 82.0336 8.01884C82.0989 8.06119 82.1551 8.11605 82.1988 8.18021C82.2425 8.24437 82.2728 8.31653 82.2881 8.39248C82.3034 8.46843 82.3032 8.54664 82.2876 8.62253C81.5564 11.848 80.741 14.3262 80.1251 15.1802C79.7008 15.71 79.4154 15.7624 78.8972 15.675C77.923 15.4541 76.9689 15.1536 76.0446 14.7765C76.0112 14.7622 75.9747 14.7565 75.9385 14.7599C75.9022 14.7633 75.8675 14.7757 75.8373 14.7959C75.8068 14.8155 75.7817 14.8422 75.7639 14.8736C75.7462 14.9051 75.7365 14.9404 75.7357 14.9764C75.726 15.2252 75.7032 15.4733 75.6672 15.7197C75.648 15.8991 75.6882 16.0799 75.7816 16.2346C75.8751 16.3894 76.0168 16.5097 76.1854 16.5775C77.0156 16.8883 77.8695 17.133 78.7389 17.3091C79.2316 17.3906 80.3832 17.5808 81.3804 16.3814C82.2857 15.2403 83.2652 12.2536 84.2898 7.5008C84.3498 7.4506 84.4019 7.39172 84.4442 7.32614L84.4599 7.30479C84.4792 7.27973 84.4926 7.25065 84.499 7.21974C84.5054 7.18882 84.5048 7.15686 84.497 7.12625C84.4894 7.09673 84.4758 7.06908 84.457 7.04504C84.4381 7.02099 84.4145 7.00107 84.3875 6.98652Z" fill="#1B459B"/>
<path d="M99.4562 8.77004C99.4688 8.79778 99.4869 8.82273 99.5094 8.8434C99.5319 8.86407 99.5584 8.88004 99.5872 8.89036H99.6244C99.6732 8.89827 99.7234 8.89009 99.7671 8.86707C100.018 8.73648 100.207 8.51242 100.292 8.24397C100.377 7.97552 100.351 7.68456 100.221 7.43484C99.9495 6.92618 99.6485 6.43369 99.3193 5.9599C99.1635 5.74817 98.936 5.59926 98.6785 5.54045C98.4211 5.48164 98.1509 5.51687 97.9175 5.63969L97.8412 5.68044C97.8118 5.69639 97.7863 5.71868 97.7667 5.74566C97.747 5.77265 97.7337 5.80365 97.7277 5.83639C97.7218 5.86914 97.7232 5.90281 97.732 5.93492C97.7408 5.96704 97.7567 5.99679 97.7786 6.02201C98.4491 6.86637 99.0125 7.7893 99.4562 8.77004Z" fill="#1B459B"/>
<path d="M91.1896 11.7393C91.1822 11.7107 91.169 11.684 91.1508 11.6606C91.1327 11.6372 91.1099 11.6178 91.084 11.6035L90.0477 11.0212C89.9954 10.992 89.9336 10.9843 89.8756 10.9999C89.847 11.0081 89.8203 11.022 89.7971 11.0406C89.7739 11.0593 89.7547 11.0824 89.7407 11.1086C88.8276 12.778 87.5249 14.206 85.9417 15.2733C85.9137 15.2925 85.8902 15.3176 85.873 15.3467C85.8557 15.3759 85.8452 15.4085 85.842 15.4422C85.8393 15.4757 85.8444 15.5095 85.857 15.5408C85.8695 15.5721 85.8891 15.6001 85.9144 15.6226L86.7903 16.4261C86.8221 16.4561 86.8623 16.4757 86.9057 16.4824C86.9644 16.4925 87.0248 16.4793 87.0738 16.4455C88.743 15.2374 90.1373 13.6941 91.1661 11.9159C91.1822 11.8897 91.1927 11.8605 91.1967 11.8301C91.2007 11.7997 91.1983 11.7687 91.1896 11.7393Z" fill="#1B459B"/>
<path d="M102.8 7.05445C102.53 6.56316 102.233 6.08698 101.91 5.62803C101.753 5.40718 101.518 5.25248 101.251 5.19401C100.985 5.13554 100.706 5.17749 100.469 5.3117L100.428 5.33498C100.4 5.35055 100.375 5.37209 100.356 5.3981C100.337 5.42411 100.324 5.45396 100.317 5.48557C100.311 5.51718 100.312 5.54978 100.319 5.58109C100.327 5.6124 100.341 5.64167 100.362 5.66684C101.019 6.52042 101.584 7.44096 102.045 8.41294C102.058 8.44123 102.076 8.46667 102.099 8.48769C102.122 8.50872 102.149 8.52489 102.178 8.5352H102.213C102.263 8.54325 102.314 8.53508 102.358 8.51191C102.609 8.37442 102.796 8.14493 102.878 7.87255C102.961 7.60017 102.933 7.30653 102.8 7.05445Z" fill="#1B459B"/>
<path d="M101.095 10.2236C101.128 10.0165 101.078 9.80479 100.954 9.63461C100.831 9.46444 100.644 9.34967 100.436 9.31538L96.0582 8.59149C95.9085 8.56442 95.7753 8.48066 95.6866 8.35791C95.598 8.23515 95.5609 8.08301 95.5831 7.9336L95.894 6.08411C95.9101 6.00287 95.9437 5.92607 95.9927 5.85905C96.0416 5.79202 96.1047 5.73638 96.1775 5.69597C96.2928 5.62163 96.3764 5.50757 96.4121 5.37575C96.4202 5.34647 96.4221 5.31585 96.4177 5.2858C96.4134 5.25575 96.4028 5.22691 96.3867 5.20109C96.371 5.17535 96.3503 5.15299 96.3258 5.13533C96.3013 5.11766 96.2735 5.10505 96.244 5.09823L94.6446 4.74891C94.5845 4.73732 94.5222 4.74914 94.4706 4.7819C94.4453 4.79861 94.4237 4.82034 94.4072 4.84572C94.3907 4.8711 94.3797 4.89958 94.3748 4.92939L93.9173 7.64637C93.8932 7.79477 93.8111 7.92774 93.6888 8.01641C93.5665 8.10507 93.414 8.14226 93.2642 8.1199L88.8513 7.3902C88.6416 7.35594 88.4268 7.40552 88.2538 7.52809C88.0809 7.65066 87.9639 7.83624 87.9284 8.04422C87.893 8.25015 87.9406 8.46164 88.061 8.63302C88.1813 8.8044 88.3648 8.92193 88.5717 8.96023L92.9846 9.68993C93.1343 9.717 93.2676 9.80076 93.3562 9.92352C93.4449 10.0463 93.482 10.1984 93.4597 10.3478L92.2514 17.5517C92.2505 17.6183 92.2342 17.6837 92.2035 17.7429C92.1729 17.8021 92.1289 17.8535 92.0749 17.893C92.0209 17.9325 91.9584 17.959 91.8924 17.9705C91.8263 17.982 91.7585 17.9782 91.6942 17.9593L90.7166 17.7962C90.2473 17.7205 89.7174 17.6313 89.2325 17.5342C89.1943 17.5283 89.1551 17.5315 89.1184 17.5437C89.0817 17.5559 89.0484 17.5766 89.0214 17.6041C88.9948 17.6325 88.9762 17.6674 88.9676 17.7053C88.959 17.7431 88.9607 17.7825 88.9725 17.8195C89.0402 18.0576 89.0866 18.3011 89.1113 18.5473C89.1326 18.7194 89.2097 18.8799 89.3311 19.0045C89.4524 19.1292 89.6114 19.2112 89.7839 19.2382C92.2377 19.638 93.5986 19.7505 93.9251 17.8098L95.1315 10.6292C95.1592 10.481 95.2437 10.3492 95.3674 10.2616C95.491 10.174 95.644 10.1374 95.7943 10.1596L100.174 10.8835C100.278 10.9004 100.385 10.8967 100.487 10.8726C100.59 10.8486 100.687 10.8047 100.772 10.7433C100.858 10.682 100.931 10.6046 100.986 10.5154C101.041 10.4262 101.078 10.3271 101.095 10.2236Z" fill="#1B459B"/>
<path d="M98.5158 13.2356C98.3298 12.9152 98.037 12.6694 97.688 12.5404C97.3389 12.4114 96.9554 12.4075 96.6036 12.5292C96.5717 12.54 96.5426 12.5577 96.5185 12.5812C96.4944 12.6047 96.476 12.6332 96.4645 12.6647C96.4531 12.6962 96.4489 12.7298 96.4523 12.7632C96.4558 12.7965 96.4667 12.8286 96.4844 12.8571C97.5305 14.6127 98.4021 16.4651 99.0868 18.3881C99.0964 18.4166 99.1118 18.4428 99.1319 18.4651C99.1521 18.4875 99.1767 18.5055 99.2041 18.5182C99.2225 18.5275 99.2423 18.5341 99.2627 18.5376C99.3015 18.5434 99.3412 18.5394 99.3781 18.5259L100.571 18.0815C100.598 18.0713 100.624 18.0557 100.645 18.0357C100.667 18.0157 100.684 17.9917 100.696 17.9651C100.708 17.9381 100.714 17.909 100.714 17.8797C100.714 17.8503 100.708 17.8213 100.696 17.7943C100.084 16.2232 99.3553 14.6994 98.5158 13.2356Z" fill="#1B459B"/>
</svg>
